<svg width="44" height="44" viewBox="0 0 44 44" fill="none" xmlns="http://www.w3.org/2000/svg">
<path d="M22.077 42.2369C33.2111 42.2369 42.237 33.2109 42.237 22.0769C42.237 10.9428 33.2111 1.91689 22.077 1.91689C10.9429 1.91689 1.91699 10.9428 1.91699 22.0769C1.91699 33.2109 10.9429 42.2369 22.077 42.2369Z" stroke="#314147" stroke-width="3" stroke-miterlimit="10" stroke-linecap="round"/>
<path d="M22.0771 42.2369C27.6441 42.2369 32.1571 33.2109 32.1571 22.0769C32.1571 10.9428 27.6441 1.91689 22.0771 1.91689C16.51 1.91689 11.9971 10.9428 11.9971 22.0769C11.9971 33.2109 16.51 42.2369 22.0771 42.2369Z" stroke="#314147" stroke-width="3" stroke-miterlimit="10" stroke-linecap="round"/>
<path d="M6.42383 35.0449C10.1207 32.7693 15.7596 31.317 22.0772 31.317C28.3083 31.317 33.8784 32.7298 37.5761 34.95" stroke="#314147" stroke-width="3" stroke-miterlimit="10"/>
<path d="M37.7304 9.1098C34.0335 11.3845 28.3946 12.8369 22.077 12.8369C15.8467 12.8369 10.2758 11.424 6.57812 9.20388" stroke="#314147" stroke-width="3" stroke-miterlimit="10"/>
<path d="M1.91699 22.0769H42.237" stroke="#314147" stroke-width="3" stroke-miterlimit="10"/>
<path d="M22.0771 1.91689V42.2369" stroke="#314147" stroke-width="3" stroke-miterlimit="10"/>
</svg>
