<svg width="27" height="27" viewBox="0 0 27 27" fill="none" xmlns="http://www.w3.org/2000/svg">
<path d="M17 9V8C17 5.2385 14.7615 3 12 3C9.2385 3 7 5.2385 7 8V9H4C3.44772 9 3 9.44772 3 10V18C3 19.6575 4.3425 21 6 21H18C19.6575 21 21 19.6575 21 18V10C21 9.44772 20.5523 9 20 9H17ZM9 8C9 6.34325 10.3433 5 12 5C13.6567 5 15 6.34325 15 8V9H9V8ZM19 18C19 18.5525 18.5525 19 18 19H6C5.4475 19 5 18.5525 5 18V11H19V18Z" fill="#314147"/>
<circle cx="19" cy="19" r="8" fill="#F16822"/>
<path d="M17.9727 19.858C17.9727 19.138 18.3867 18.697 19.0347 18.697C19.6827 18.697 20.0697 19.174 20.0697 19.858C20.0697 20.569 19.6827 21.019 19.0347 21.019C18.3867 21.019 17.9727 20.569 17.9727 19.858ZM19.1247 16.438C19.5927 16.438 19.9887 16.636 20.0607 17.248H21.5187C21.4467 16.213 20.7177 15.367 19.2057 15.367C17.2167 15.367 16.4067 16.987 16.4067 18.895C16.4067 20.704 17.1807 22.117 19.0347 22.117C20.5197 22.117 21.5907 21.235 21.5907 19.858C21.5907 18.526 20.5377 17.581 19.3587 17.581C18.7107 17.581 18.2787 17.77 17.9547 18.058C17.9277 16.951 18.4407 16.438 19.1247 16.438Z" fill="white"/>
</svg>
