<svg width="24" height="24" viewBox="0 0 24 24" fill="none" xmlns="http://www.w3.org/2000/svg">
<path d="M16.2427 17.6567C16.6332 18.0472 17.2664 18.0472 17.6569 17.6567C18.0474 17.2661 18.0474 16.633 17.6569 16.2425L13.4143 11.9999L17.6569 7.75732C18.0474 7.3668 18.0474 6.73363 17.6569 6.34311C17.2664 5.95258 16.6332 5.95258 16.2427 6.34311L12.0001 10.5857L7.75741 6.34296C7.36689 5.95243 6.73372 5.95243 6.3432 6.34296C5.95267 6.73348 5.95267 7.36665 6.3432 7.75717L10.5859 11.9999L6.34319 16.2426C5.95266 16.6331 5.95266 17.2663 6.34319 17.6568C6.73371 18.0473 7.36688 18.0473 7.7574 17.6568L12.0001 13.4141L16.2427 17.6567Z" fill="#314147"/>
</svg>
