<svg width="24" height="24" viewBox="0 0 24 24" fill="none" xmlns="http://www.w3.org/2000/svg">
<path d="M23.4384 12.2245C23.4384 11.2413 23.3586 10.5238 23.186 9.77966H11.958V14.2176H18.5486C18.4157 15.3205 17.6982 16.9815 16.1037 18.0976L16.0813 18.2462L19.6314 20.9964L19.8774 21.0209C22.1362 18.9347 23.4384 15.8653 23.4384 12.2245Z" fill="#4285F4"/>
<path d="M11.9581 23.9176C15.1869 23.9176 17.8976 22.8545 19.8775 21.0209L16.1038 18.0976C15.094 18.8018 13.7386 19.2934 11.9581 19.2934C8.7957 19.2934 6.11164 17.2074 5.15484 14.324L5.0146 14.3359L1.32318 17.1927L1.2749 17.3269C3.24144 21.2334 7.28086 23.9176 11.9581 23.9176Z" fill="#34A853"/>
<path d="M5.15551 14.324C4.90305 13.5799 4.75695 12.7825 4.75695 11.9588C4.75695 11.1349 4.90305 10.3377 5.14223 9.59357L5.13554 9.4351L1.39786 6.53238L1.27557 6.59055C0.465069 8.21165 0 10.0321 0 11.9588C0 13.8854 0.465069 15.7058 1.27557 17.3269L5.15551 14.324Z" fill="#FBBC05"/>
<path d="M11.9581 4.62403C14.2037 4.62403 15.7184 5.59402 16.5821 6.40461L19.9572 3.10928C17.8844 1.1826 15.1869 0 11.9581 0C7.28086 0 3.24144 2.68406 1.2749 6.59056L5.14156 9.59359C6.11164 6.7102 8.7957 4.62403 11.9581 4.62403Z" fill="#EB4335"/>
</svg>
