<svg width="24" height="24" viewBox="0 0 24 24" fill="none" xmlns="http://www.w3.org/2000/svg">
<path d="M4.92912 17.6566C4.5386 18.0472 4.5386 18.6803 4.92912 19.0709C5.31965 19.4614 5.95281 19.4614 6.34334 19.0709L12 13.4142L17.657 19.0712C18.0476 19.4618 18.6807 19.4618 19.0713 19.0712C19.4618 18.6807 19.4618 18.0476 19.0713 17.657L13.4142 12L19.0713 6.34294C19.4618 5.95242 19.4618 5.31925 19.0713 4.92873C18.6807 4.5382 18.0476 4.5382 17.657 4.92873L12 10.5858L6.34334 4.92911C5.95281 4.53859 5.31965 4.53859 4.92912 4.92911C4.5386 5.31964 4.5386 5.9528 4.92912 6.34332L10.5858 12L4.92912 17.6566Z" fill="#314147"/>
</svg>
