<svg width="24" height="24" viewBox="0 0 24 24" fill="none" xmlns="http://www.w3.org/2000/svg">
<path fill-rule="evenodd" clip-rule="evenodd" d="M10.0952 15V9L16.1667 12L10.0952 15ZM21.8 8.01995C21.8 8.01995 21.6044 6.64838 21.005 6.04439C20.2444 5.2513 19.3919 5.24756 19.0012 5.20153C16.2025 5 12.0044 5 12.0044 5H11.9956C11.9956 5 7.7975 5 4.99875 5.20153C4.6075 5.24756 3.75563 5.2513 2.99438 6.04439C2.395 6.64838 2.2 8.01995 2.2 8.01995C2.2 8.01995 2 9.63101 2 11.2414V12.7517C2 14.3628 2.2 15.9732 2.2 15.9732C2.2 15.9732 2.395 17.3448 2.99438 17.9488C3.75563 18.7419 4.755 18.717 5.2 18.7997C6.8 18.9527 12 19 12 19C12 19 16.2025 18.9938 19.0012 18.7922C19.3919 18.7456 20.2444 18.7419 21.005 17.9488C21.6044 17.3448 21.8 15.9732 21.8 15.9732C21.8 15.9732 22 14.3628 22 12.7517V11.2414C22 9.63101 21.8 8.01995 21.8 8.01995Z" fill="#314147"/>
</svg>
