<svg width="24" height="24" viewBox="0 0 24 24" fill="none" xmlns="http://www.w3.org/2000/svg">
<path fill-rule="evenodd" clip-rule="evenodd" d="M12 4C9.82734 4 9.5549 4.00921 8.70162 4.04814C7.85011 4.08698 7.26855 4.22223 6.75969 4.42C6.23362 4.62442 5.78749 4.89796 5.34271 5.34271C4.89797 5.78748 4.62442 6.23362 4.42 6.75969C4.22223 7.26855 4.08698 7.8501 4.04815 8.70161C4.00921 9.55489 4 9.82733 4 12C4 14.1727 4.00921 14.4451 4.04815 15.2984C4.08698 16.1499 4.22223 16.7314 4.42 17.2403C4.62442 17.7664 4.89797 18.2125 5.34271 18.6573C5.78749 19.102 6.23362 19.3756 6.75969 19.58C7.26855 19.7778 7.85011 19.913 8.70162 19.9519C9.5549 19.9908 9.82734 20 12 20C14.1727 20 14.4451 19.9908 15.2984 19.9519C16.1499 19.913 16.7314 19.7778 17.2403 19.58C17.7664 19.3756 18.2125 19.102 18.6573 18.6573C19.102 18.2125 19.3756 17.7664 19.58 17.2403C19.7778 16.7314 19.913 16.1499 19.9519 15.2984C19.9908 14.4451 20 14.1727 20 12C20 9.82733 19.9908 9.55489 19.9519 8.70161C19.913 7.8501 19.7778 7.26855 19.58 6.75969C19.3756 6.23362 19.102 5.78748 18.6573 5.34271C18.2125 4.89796 17.7664 4.62442 17.2403 4.42C16.7314 4.22223 16.1499 4.08698 15.2984 4.04814C14.4451 4.00921 14.1727 4 12 4ZM12 5.44144C14.1361 5.44144 14.3891 5.4496 15.2327 5.48809C16.0127 5.52365 16.4363 5.65398 16.7182 5.76354C17.0916 5.90866 17.3581 6.08202 17.638 6.36198C17.918 6.64191 18.0913 6.90841 18.2365 7.28183C18.346 7.56373 18.4763 7.98732 18.5119 8.76731C18.5504 9.61088 18.5586 9.86391 18.5586 12C18.5586 14.1361 18.5504 14.3891 18.5119 15.2327C18.4763 16.0127 18.346 16.4363 18.2365 16.7182C18.0913 17.0916 17.918 17.3581 17.638 17.638C17.3581 17.918 17.0916 18.0913 16.7182 18.2365C16.4363 18.346 16.0127 18.4763 15.2327 18.5119C14.3892 18.5504 14.1363 18.5586 12 18.5586C9.86376 18.5586 9.61079 18.5504 8.76731 18.5119C7.98732 18.4763 7.56373 18.346 7.28183 18.2365C6.90841 18.0913 6.64191 17.918 6.36198 17.638C6.08205 17.3581 5.90866 17.0916 5.76354 16.7182C5.65398 16.4363 5.52365 16.0127 5.48809 15.2327C5.4496 14.3891 5.44144 14.1361 5.44144 12C5.44144 9.86391 5.4496 9.61088 5.48809 8.76731C5.52365 7.98732 5.65398 7.56373 5.76354 7.28183C5.90866 6.90841 6.08202 6.64191 6.36198 6.36198C6.64191 6.08202 6.90841 5.90866 7.28183 5.76354C7.56373 5.65398 7.98732 5.52365 8.76731 5.48809C9.61088 5.4496 9.86392 5.44144 12 5.44144ZM12 7.8919C9.73115 7.8919 7.8919 9.73114 7.8919 12C7.8919 14.2689 9.73115 16.1081 12 16.1081C14.2689 16.1081 16.1081 14.2689 16.1081 12C16.1081 9.73114 14.2689 7.8919 12 7.8919ZM12 14.6667C10.5272 14.6667 9.33333 13.4728 9.33333 12C9.33333 10.5272 10.5272 9.33333 12 9.33333C13.4728 9.33333 14.6667 10.5272 14.6667 12C14.6667 13.4728 13.4728 14.6667 12 14.6667ZM17.2304 7.72959C17.2304 8.25979 16.8006 8.68958 16.2704 8.68958C15.7402 8.68958 15.3104 8.25979 15.3104 7.72959C15.3104 7.19939 15.7402 6.76957 16.2704 6.76957C16.8006 6.76957 17.2304 7.19939 17.2304 7.72959Z" fill="#314147"/>
</svg>
