<svg width="34" height="42" viewBox="0 0 34 42" fill="none" xmlns="http://www.w3.org/2000/svg">
<path fill-rule="evenodd" clip-rule="evenodd" d="M6.59399 28.4751V35.0001H8.13299V32.7411H9.10499C10.797 32.7411 12.066 32.3181 12.066 30.5991C12.066 28.8891 10.797 28.4751 9.10499 28.4751H6.59399ZM9.14999 29.7711C9.86999 29.7711 10.437 29.9151 10.437 30.5991C10.437 31.2831 9.86999 31.4451 9.14999 31.4451H8.13299V29.7711H9.14999Z" fill="#314147"/>
<path fill-rule="evenodd" clip-rule="evenodd" d="M13.0448 28.4751V35.0001H15.1958C17.3288 35.0001 19.0118 34.2171 19.0118 31.7331C19.0118 29.2581 17.3288 28.4751 15.1958 28.4751H13.0448ZM17.3828 31.7331C17.3828 33.4611 16.3478 33.7041 15.2228 33.7041H14.5838V29.7711H15.2228C16.3478 29.7711 17.3828 30.0051 17.3828 31.7331Z" fill="#314147"/>
<path d="M21.6938 35.0001H20.1548V28.4751H24.9608V29.8251H21.6938V30.9681H24.7628V32.3271H21.6938V35.0001Z" fill="#314147"/>
<path fill-rule="evenodd" clip-rule="evenodd" d="M0 2C0 0.89543 0.895431 0 2 0H21.222C21.7224 0 22.2046 0.18757 22.5735 0.525692L33.3514 10.4055C33.7647 10.7843 34 11.3192 34 11.8798V40C34 41.1046 33.1046 42 32 42H2C0.89543 42 0 41.1046 0 40V2ZM3 3H20V10.5C20 12.433 21.567 14 23.5 14H31V39H3V3ZM23.5 11H29.5603L23 4.98637V10.5C23 10.7761 23.2239 11 23.5 11Z" fill="#314147"/>
</svg>
