<svg width="24" height="24" viewBox="0 0 24 24" fill="none" xmlns="http://www.w3.org/2000/svg">
<path fill-rule="evenodd" clip-rule="evenodd" d="M10.5021 1.40282C10.9577 1.14032 11.4742 1.00214 12 1.00214C12.5258 1.00214 13.0424 1.14033 13.4979 1.40286L13.5 1.40406L20.5 5.40405C20.8703 5.61787 21.1897 5.9078 21.4376 6.25345C21.4977 6.31364 21.551 6.38252 21.5955 6.45959C21.6339 6.52597 21.6639 6.59493 21.6856 6.66521C21.8916 7.07886 21.9995 7.53531 22 7.99906V16.0011C21.9995 16.5272 21.8606 17.0439 21.5973 17.4994C21.334 17.9548 20.9556 18.3331 20.5 18.5961L20.4961 18.5983L13.5 22.5961L13.4982 22.5971C13.1811 22.78 12.8343 22.9025 12.4755 22.9601C12.3341 23.0367 12.1721 23.0802 12 23.0802C11.8279 23.0802 11.6659 23.0367 11.5245 22.9601C11.1657 22.9025 10.819 22.78 10.5019 22.5972L10.5 22.5961L3.50386 18.5983L3.5 18.5961C3.04439 18.3331 2.66597 17.9548 2.40269 17.4994C2.13941 17.0439 2.00054 16.5272 2 16.0011V7.99906C2.00048 7.53555 2.10834 7.07932 2.31405 6.66584C2.33584 6.59534 2.36582 6.52617 2.40433 6.45959C2.44902 6.38234 2.50245 6.31332 2.56265 6.25303C2.81057 5.90757 3.12981 5.61779 3.5 5.40406L3.50386 5.40183L10.5021 1.40282ZM13 20.5783L19.5 16.8641L19.5016 16.8631C19.6527 16.7755 19.7783 16.6498 19.8658 16.4985C19.9535 16.3467 19.9998 16.1744 20 15.9991V8.53781L13 12.5871V20.5783ZM11 12.5871V20.5783L4.5 16.8641L4.49842 16.8631C4.34726 16.7755 4.22169 16.6498 4.13423 16.4985C4.04654 16.3468 4.00025 16.1747 4 15.9995V8.53788L11 12.5871ZM12.5 3.13612L18.9612 6.82822L11.9999 10.8551L5.03876 6.82825L11.4961 3.13834L11.5 3.13611C11.652 3.04834 11.8245 3.00214 12 3.00214C12.1755 3.00214 12.348 3.04835 12.5 3.13612Z" fill="#314147"/>
</svg>
