<svg fill="none" height="533" viewBox="0 0 600 533" width="600" xmlns="http://www.w3.org/2000/svg"><path d="m600 468h-600v1h600z" fill="#f0f0f0"/><path clip-rule="evenodd" d="m9.09676.5c-4.68069 0-8.598713 3.93108-8.598713 8.62738v386.97762c0 4.696 3.918023 8.627 8.598713 8.627h274.41824c4.822 0 8.598-3.789 8.598-8.627v-386.97762c0-4.6963-3.918-8.62738-8.598-8.62738zm-7.31781 8.62738c0-4.1381 3.32375-7.34221 7.31781-7.34221h274.41824c4.124 0 7.318 3.33483 7.318 7.34221v386.97762c0 4.138-3.324 7.342-7.318 7.342h-274.41824c-4.12435 0-7.31781-3.335-7.31781-7.342z" fill="#f5f5f5" fill-rule="evenodd"/><path clip-rule="evenodd" d="m316.485.5c-4.68 0-8.598 3.93108-8.598 8.62738v386.97762c0 4.696 3.918 8.627 8.598 8.627h274.418c4.823 0 8.599-3.789 8.599-8.627v-386.97762c0-4.6963-3.918-8.62738-8.599-8.62738zm-7.317 8.62738c0-4.1381 3.323-7.34221 7.317-7.34221h274.418c4.125 0 7.318 3.33483 7.318 7.34221v386.97762c0 4.138-3.324 7.342-7.318 7.342h-274.418c-4.124 0-7.317-3.335-7.317-7.342z" fill="#f5f5f5" fill-rule="evenodd"/><path d="m309.805 262.217h-17.907v193.061h17.907z" fill="#f0f0f0"/><path d="m572.426 455.135h-273.707v12.832h273.707z" fill="#f0f0f0"/><path d="m309.767 455.173h269.587v-193.061h-269.587z" fill="#f5f5f5"/><path d="m305.541 249.954h-18.475v12.12h18.475z" fill="#e0e0e0"/><path d="m305.533 262.258h278.539v-12.12h-278.539z" fill="#ebebeb"/><path d="m552.674 345.201h-216.294c-7.674 0-14.069-6.274-14.069-14.116v-41.35c0-7.7 6.252-14.116 14.069-14.116h216.294c7.674 0 14.069 6.274 14.069 14.116v41.35c-.142 7.842-6.395 14.116-14.069 14.116zm-216.294-66.588c-6.111 0-11.227 4.991-11.227 11.265v41.349c0 6.132 4.974 11.265 11.227 11.265h216.294c6.111 0 11.227-4.991 11.227-11.265v-41.349c0-6.131-4.974-11.265-11.227-11.265z" fill="#fff"/><path d="m552.674 431.608h-216.294c-7.674 0-14.069-6.274-14.069-14.116v-41.35c0-7.699 6.252-14.116 14.069-14.116h216.294c7.674 0 14.069 6.274 14.069 14.116v41.35c-.142 7.842-6.395 14.116-14.069 14.116zm-216.294-66.587c-6.111 0-11.227 4.99-11.227 11.264v41.35c0 6.131 4.974 11.264 11.227 11.264h216.294c6.111 0 11.227-4.99 11.227-11.264v-41.35c0-6.131-4.974-11.264-11.227-11.264z" fill="#fff"/><path d="m480.481 316.399h-71.766c-2.416 0-4.264-1.996-4.264-4.277v-3.423c0-2.424 1.99-4.277 4.264-4.277h71.766c2.416 0 4.263 1.996 4.263 4.277v3.423c0 2.423-1.989 4.277-4.263 4.277zm-71.909-9.125c-.852 0-1.421.713-1.421 1.425v3.423c0 .855.711 1.425 1.421 1.425h71.767c.853 0 1.421-.713 1.421-1.425v-3.423c0-.855-.71-1.425-1.421-1.425z" fill="#fff"/><path d="m480.481 402.949h-71.766c-2.416 0-4.264-1.996-4.264-4.278v-3.422c0-2.424 1.99-4.277 4.264-4.277h71.766c2.416 0 4.263 1.996 4.263 4.277v3.422c0 2.282-1.989 4.278-4.263 4.278zm-71.909-9.126c-.852 0-1.421.713-1.421 1.426v3.422c0 .856.711 1.426 1.421 1.426h71.767c.853 0 1.421-.713 1.421-1.426v-3.422c0-.855-.71-1.426-1.421-1.426z" fill="#fff"/><path d="m27.3805 327.441h49.8812v-9.838h-49.8812z" fill="#e6e6e6"/><path d="m171.388 130.468h-9.238v337.785h9.238z" fill="#e6e6e6"/><path d="m203.221 317.683h-126.053v9.838h126.053z" fill="#f5f5f5"/><path d="m27.3805 418.398h49.8812v-9.838h-49.8812z" fill="#e6e6e6"/><path d="m203.221 408.51h-126.053v9.838h126.053z" fill="#f5f5f5"/><path d="m27.3805 145.67h49.8812v-9.838h-49.8812z" fill="#e6e6e6"/><path d="m203.221 135.886h-126.053v9.838h126.053z" fill="#f5f5f5"/><path d="m27.3805 236.627h49.8812v-9.838h-49.8812z" fill="#e6e6e6"/><path d="m203.221 226.713h-126.053v9.838h126.053z" fill="#f5f5f5"/><path d="m45.3349 130.468h-9.2372v337.785h9.2372z" fill="#e6e6e6"/><path d="m86.4052 130.468h-9.2372v337.785h9.2372z" fill="#f5f5f5"/><path d="m203.362 130.468h-9.237v337.785h9.237z" fill="#f5f5f5"/><path d="m430.173 41.9219h-188.866v161.9771h188.866z" fill="#e0e0e0"/><path d="m438.273 41.9219h-192.419v161.9771h192.419z" fill="#f5f5f5"/><path d="m426.709 191.145v-136.4546h-169.255v136.4546z" fill="#fff"/><path d="m519.136 68.7285h-7.816v176.2355h7.816z" fill="#f5f5f5"/><path d="m542.3 249.954h-54.286c0-3.849 3.126-6.844 6.821-6.844h40.502c3.979 0 6.963 3.137 6.963 6.844z" fill="#f0f0f0"/><path d="m554.522 119.203h-78.446l8.953-81.4159h60.398z" fill="#e0e0e0"/><path d="m300.5 533c152.154 0 275.5-7.163 275.5-16s-123.346-16-275.5-16-275.5 7.163-275.5 16 123.346 16 275.5 16z" fill="#f5f5f5"/><path d="m240.455 119.061s3.268-11.834 22.453-7.414c19.043 4.42 3.837 18.964 3.837 18.964s13.075 8.697 8.953 26.235c-4.689 20.248 7.248 24.525 1.422 33.651-5.685 9.268-45.192 16.254-70.488 2.138-15.206-8.555 5.969-33.507 2.984-44.914-4.547-17.253 8.243-34.221 30.839-28.66z" fill="#263238"/><g fill="#3e8eae"><path d="m237.472 403.804 15.064-75.285c1.563-7.984 9.38-14.401 17.338-14.401h145.38c7.958 0 13.074 6.417 11.511 14.401l-15.064 75.285c-1.563 7.985-9.379 14.402-17.337 14.402h-145.381c-7.958 0-13.074-6.559-11.511-14.402z"/><path d="m113.693 292.587c-.427-3.279-.711-6.701-.853-9.981h1.421c.142 3.28.426 6.559.853 9.839z"/><path d="m115.54 263.5-1.421-.285c2.416-14.259 8.243-27.091 17.054-37.928l1.136.856c-8.668 10.836-14.353 23.384-16.769 37.357z"/><path d="m198.107 201.048h25.58l39.649 195.342h-25.58c-53.718 0-106.3-43.774-117.242-97.671-10.801-53.897 23.874-97.671 77.593-97.671z"/><path d="m323.484 371.317c32.565-36.173 23.127-97.976-21.08-138.039-44.208-40.064-106.445-43.217-139.01-7.044-32.565 36.174-23.127 97.976 21.081 138.04 44.207 40.063 106.444 43.217 139.009 7.043z"/></g><path d="m323.484 371.317c32.565-36.173 23.127-97.976-21.08-138.039-44.208-40.064-106.445-43.217-139.01-7.044-32.565 36.174-23.127 97.976 21.081 138.04 44.207 40.063 106.444 43.217 139.009 7.043z" fill="#fff" opacity=".2"/><path d="m376.599 374.717 9.237-46.34c1.563-7.985 9.38-14.401 17.338-14.401h14.495c7.959 0 13.075 6.416 11.511 14.401l-15.063 75.285c-1.564 7.985-9.38 14.401-17.338 14.401h-2.985-11.511-168.402v-43.489h162.718z" fill="#3e8eae"/><path d="m376.599 374.717 9.237-46.34c1.563-7.985 9.38-14.401 17.338-14.401h14.495c7.959 0 13.075 6.416 11.511 14.401l-15.063 75.285c-1.564 7.985-9.38 14.401-17.338 14.401h-2.985-11.511-168.402v-43.489h162.718z" fill="#fff" opacity=".3"/><path d="m198.533 516.02h9.237l22.454-97.814h-16.627z" fill="#263238"/><path d="m198.533 516.02h9.237l22.454-97.814h-16.627z" fill="#fff" opacity=".6"/><path d="m152.771 516.02h9.238l22.453-97.814h-16.769z" fill="#263238"/><path d="m152.771 516.02h9.238l22.453-97.814h-16.769z" fill="#fff" opacity=".6"/><path d="m343.486 516.02h-9.237l-22.454-97.814h16.769z" fill="#263238"/><path d="m343.486 516.02h-9.237l-22.454-97.814h16.769z" fill="#fff" opacity=".6"/><path d="m389.246 516.02h-9.237l-22.312-97.814h16.627z" fill="#263238"/><path d="m389.246 516.02h-9.237l-22.312-97.814h16.627z" fill="#fff" opacity=".6"/><path d="m282.237 225.573c4.832 8.412 9.948 16.967 15.348 25.095 2.7 4.135 5.4 8.127 8.242 11.977 2.843 3.85 5.827 7.557 8.811 10.551.142.143 0 0-.142-.142-.142 0-.284-.286-.568-.428-.569-.285-1.279-.713-2.7-.998-.427 0-.711 0-1.137 0-.427 0-.853 0-1.279.142-.427.143-.853.285-1.279.428-.427.143-.711.285-.995.57-1.137.713-1.705 1.426-1.99 1.854-.568.855-.568 1.141-.568 1.141 0 .142 0 0 0-.143.142-.428.284-1.568.284-2.566.142-2.139.142-4.563.142-6.987-.142-4.848-.284-9.839-.568-14.829l-1.706-29.943 8.385-1.283c2.416 9.838 4.405 19.819 6.111 29.943.71 4.99 1.563 10.123 1.989 15.399.285 2.566.427 5.276.427 8.127 0 1.426 0 2.852-.285 4.848-.142.571-.142.998-.426 1.711s-.426 1.569-1.279 2.852c-.426.713-1.137 1.711-2.558 2.566-.426.286-.71.428-1.279.571-.426.142-.995.285-1.421.428-.426.142-.995.142-1.563.142-.427 0-.995 0-1.421 0-1.706-.285-2.7-.855-3.553-1.283-.284-.143-.711-.428-.853-.57l-.568-.428c-4.406-3.85-7.959-7.842-11.369-11.835-3.411-4.135-6.537-8.27-9.38-12.547-5.968-8.555-11.226-17.111-16.2-26.379z" fill="#ffc3bd"/><path d="m274.421 209.603c11.369 1.854 20.606 36.074 20.322 35.361l-21.885 20.39s-13.501-20.39-11.511-30.513c1.989-10.551 4.121-26.664 13.074-25.238z" fill="#3e8eae"/><path d="m274.421 209.603c11.369 1.854 20.606 36.074 20.322 35.361l-21.885 20.39s-13.501-20.39-11.511-30.513c1.989-10.551 4.121-26.664 13.074-25.238z" fill="#000" opacity=".4"/><path d="m286.927 231.704c-1.137 14.686-4.263 39.354-12.364 80.846l-68.64-1.996c1.848-25.38-.852-44.344-7.105-88.831-1.137-8.127 4.689-15.542 12.79-16.397 4.405-.428 9.379-.856 14.495-.856 11.511-.143 21.033-.285 31.123.998 3.41.428 6.821.998 10.09 1.569 12.079 1.711 20.606 12.547 19.611 24.667z" fill="#3e8eae"/><path d="m286.927 231.704c-1.137 14.686-4.263 39.354-12.364 80.846l-68.64-1.996c1.848-25.38-.852-44.344-7.105-88.831-1.137-8.127 4.689-15.542 12.79-16.397 4.405-.428 9.379-.856 14.495-.856 11.511-.143 21.033-.285 31.123.998 3.41.428 6.821.998 10.09 1.569 12.079 1.711 20.606 12.547 19.611 24.667z" fill="#000" opacity=".3"/><path d="m230.223 169.109c1.705 10.124 3.126 28.66-4.121 35.076 0 0 17.621 9.268 29.133 25.381 12.363-9.839 1.989-24.525 1.989-24.525-11.085-2.994-10.516-11.264-8.385-19.107z" fill="#ffc3bd"/><path d="m237.898 176.096 11.084 9.981c-.568 1.853-.994 3.707-1.137 5.561-4.263-.713-9.947-5.561-10.374-10.124-.142-2.281 0-4.42.427-5.418z" fill="#000" opacity=".2"/><path d="m219.138 150.288c2.984 16.54 3.979 23.669 13.358 31.226 14.212 11.407 33.823 3.992 35.813-13.118 1.847-15.399-3.411-39.924-20.464-44.629-16.912-4.705-31.833 9.838-28.707 26.521z" fill="#ffc3bd"/><path d="m241.735 121.77c22.596 9.268-.142 16.968-8.385 25.808-7.248 7.842-.426 20.247-12.648 11.407-5.826-4.135-5.542-26.236-2.274-30.371 3.127-4.135 16.485-9.696 23.307-6.844z" fill="#263238"/><path d="m247.42 152.712c.142 1.426.995 2.424 1.848 2.281.852-.142 1.421-1.283 1.279-2.709s-.995-2.424-1.848-2.281c-.852.285-1.421 1.426-1.279 2.709z" fill="#263238"/><path d="m262.767 150.572c.142 1.426.995 2.424 1.847 2.282.853-.143 1.421-1.284 1.279-2.709-.142-1.426-.995-2.424-1.847-2.282-.853.143-1.563 1.283-1.279 2.709z" fill="#263238"/><path d="m263.619 148.006 3.127-1.283s-1.279 2.709-3.127 1.283z" fill="#263238"/><path d="m257.082 152.712s2.984 5.561 5.827 8.127c-1.564 1.854-4.69 1.426-4.69 1.426z" fill="#ed847e"/><path d="m251.399 168.396c.568 0 1.279 0 1.989-.142.285 0 .427-.286.285-.428 0-.285-.285-.428-.427-.285-5.968.713-9.237-3.137-9.237-3.137-.142-.143-.426-.143-.568 0-.143.142-.143.428 0 .57.142.143 2.842 3.28 7.958 3.422z" fill="#263238"/><path d="m215.444 165.401c1.705 3.28 4.832 5.561 7.816 6.417 4.406 1.283 6.68-2.709 5.543-6.844-.995-3.85-4.69-9.126-9.096-8.555-4.405.427-6.252 5.133-4.263 8.982z" fill="#ffc3bd"/><path d="m240.74 149.147c.285 0 .711-.143.711-.571 1.279-3.564 5.827-4.847 5.969-4.847.426-.143.71-.571.568-.999-.142-.427-.568-.712-.995-.57-.284 0-5.4 1.569-6.963 5.846-.142.428 0 .856.426.998.142.143.142.143.284.143z" fill="#263238"/><path d="m266.32 142.018c.285 0 .569-.143.711-.428.284-.428.142-.855-.284-1.141-3.695-2.424-7.106-.855-7.248-.855-.426.142-.568.713-.426.998.142.428.71.57.995.428.142 0 2.7-1.141 5.684.713.284.285.426.285.568.285z" fill="#263238"/><path d="m282.379 498.624 15.49 5.846 17.622-36.217-15.49-5.846z" fill="#ffc3bd"/><path d="m302.275 494.489-17.053-8.413c-.569-.285-1.279-.142-1.705.428l-7.674 11.407c-.995 1.283-.427 2.994.852 3.992 4.548 3.422 8.101 3.565 15.633 7.272 4.547 2.281 13.926 8.27 20.89 9.838 6.821 1.569 8.669-5.275 5.969-6.558-12.364-5.704-12.506-10.552-14.78-15.97-.568-.856-1.279-1.569-2.132-1.996z" fill="#263238"/><path d="m315.492 468.253-9.096 18.679-15.49-5.846 9.095-18.679z" fill="#000" opacity=".04"/><path d="m395.641 469.537 14.638-7.843-15.491-37.215-12.079 20.675z" fill="#ffc3bd"/><path d="m409.284 454.993-18.901 2.424c-.711.142-1.137.57-1.137 1.283v15.257c0 1.568 1.563 2.851 3.127 2.709 6.537-.998 9.663-1.711 17.906-2.709 5.116-.713 18.19-1.854 25.153-2.71 6.822-.855 6.395-7.842 3.411-8.127-13.501-1.141-21.743-3.992-26.717-7.272-.853-.713-1.847-.998-2.842-.855z" fill="#263238"/><path d="m394.788 424.479 7.959 19.25-14.638 7.699-5.4-6.274z" fill="#000" opacity=".04"/><path d="m248.414 150.287 3.127-1.283c0-.142-1.422 2.709-3.127 1.283z" fill="#263238"/><path d="m261.346 325.81s96.067-.57 93.083 31.797c-4.974 53.469-42.634 126.901-42.634 126.901l-21.885-7.557s23.164-49.335 22.17-102.234c-21.601 0-46.471 0-70.488 0-26.859 0-38.512-29.658-12.364-64.163 16.059 0 32.118 15.256 32.118 15.256z" fill="#000"/><path d="m205.069 306.419-1.989 6.131c-.284.428.284.998 1.137.998l70.629 2.139c.569 0 1.137-.285 1.137-.713l.853-6.131c0-.428-.427-.856-1.137-.856l-69.493-2.138c-.426.142-.995.285-1.137.57z" fill="#fff"/><path d="m214.166 314.546h-1.848c-.426 0-.71-.142-.568-.427l1.137-7.985c0-.285.426-.428.71-.428h1.848c.426 0 .71.143.568.428l-1.137 7.985c0 .142-.284.427-.71.427z" fill="#263238"/><path d="m269.59 316.115h-1.848c-.426 0-.71-.143-.568-.428l1.137-7.985c0-.285.426-.428.71-.428h1.848c.426 0 .71.143.568.428l-1.137 7.985c0 .285-.284.428-.71.428z" fill="#263238"/><path d="m241.877 315.402h-1.848c-.426 0-.71-.143-.568-.428l1.137-7.985c0-.285.426-.427.71-.427h1.848c.426 0 .71.142.568.427l-1.137 7.985c0 .143-.284.428-.71.428z" fill="#263238"/><path d="m250.688 311.409s119.09-25.381 124.206 4.99c8.953 52.899 27.996 120.485 27.996 120.485l-19.185 13.118s-29.843-63.023-47.039-112.928c-20.606 6.702-80.577 37.643-104.594 37.643-26.859 0-37.091-24.097-25.296-63.879 16.059 0 43.912.571 43.912.571z" fill="#263238"/><path d="m354.429 357.607c-.569 5.988-1.564 12.262-2.843 18.678-5.258-13.118-10.516-26.663-14.779-39.211 11.084 4.563 18.474 11.122 17.622 20.533z" fill="#000"/><path d="m127.904 328.377 15.064 75.285c1.563 7.985 9.379 14.401 17.337 14.401h51.871c7.959 0 13.075-6.416 11.511-14.401l-15.064-75.285c-1.563-7.985-9.379-14.401-17.337-14.401h-51.871c-7.958 0-13.074 6.416-11.511 14.401z" fill="#3e8eae"/><path d="m236.904 403.804-15.064-75.285c-1.563-7.984-9.38-14.401-17.338-14.401h-14.495c-7.958 0-13.075 6.417-11.511 14.401l15.064 75.285c1.563 7.985 9.379 14.402 17.337 14.402h14.496c7.958 0 13.074-6.559 11.511-14.402z" fill="#3e8eae"/><path d="m236.904 403.804-15.064-75.285c-1.563-7.984-9.38-14.401-17.338-14.401h-14.495c-7.958 0-13.075 6.417-11.511 14.401l15.064 75.285c1.563 7.985 9.379 14.402 17.337 14.402h14.496c7.958 0 13.074-6.559 11.511-14.402z" fill="#fff" opacity=".3"/><path d="m213.881 231.562c-.852 4.42-1.705 9.268-2.416 13.831-.71 4.705-1.421 9.41-1.847 13.973-.426 4.705-.853 9.268-.995 13.831 0 4.562.142 8.983.853 12.832l.142.713c0-.142-.142-.285-.142-.285-.142-.142-.142-.142 0 0 .142.285.568.713 1.137 1.283 1.137.999 2.984 2.139 4.832 3.137 3.837 1.997 8.1 3.85 12.505 5.419 4.406 1.711 8.953 3.136 13.501 4.562s9.237 2.852 13.785 4.135l-1.421 8.413c-9.948-.856-19.754-2.282-29.559-4.705-4.974-1.284-9.806-2.71-14.922-4.848-2.558-1.141-5.116-2.424-7.816-4.278-1.279-.998-2.701-2.139-4.122-3.85-.71-.855-1.279-1.853-1.847-3.137-.284-.57-.569-1.283-.711-1.996l-.284-1.141c-1.421-5.703-1.847-10.979-2.132-16.254-.142-5.276 0-10.409.427-15.4.426-5.133.995-10.123 1.705-15.114.853-4.99 1.563-9.838 2.842-14.971z" fill="#ffc3bd"/><path d="m205.071 208.32c-6.964 1.996-15.348 25.808-15.348 25.808l26.575 19.391s9.947-19.819 7.105-28.66c-2.984-9.553-10.374-18.963-18.332-16.539z" fill="#3e8eae"/><path d="m205.071 208.32c-6.964 1.996-15.348 25.808-15.348 25.808l26.575 19.391s9.947-19.819 7.105-28.66c-2.984-9.553-10.374-18.963-18.332-16.539z" fill="#000" opacity=".3"/><path d="m275.699 304.993-6.679-2.994c-1.706-.713-3.553-.998-5.258-.57l-15.775 3.707-2.132 5.275c2.274 6.274 12.791 5.419 12.791 5.419l8.384 2.851c1.421.428 2.842 0 3.837-.998l6.111-7.129c1.421-1.854.853-4.705-1.279-5.561z" fill="#ffc3bd"/><path d="m322.027 200.192-8.668.713c-1.99.143-3.695 1.569-4.264 3.565l-2.274 7.557s-6.821 8.127-3.126 13.546l5.542 1.425 12.364-10.836c1.279-1.141 2.132-2.567 2.416-4.278l1.563-7.699c.426-2.282-1.421-4.278-3.553-3.993z" fill="#ffc3bd"/><path d="m323.592 194.489c0 10.979-8.953 19.962-19.896 19.962-10.942 0-19.895-8.983-19.895-19.962z" fill="#3e8eae"/><path d="m303.554 195.345c10.988 0 19.896-.383 19.896-.856 0-.472-8.908-.855-19.896-.855s-19.896.383-19.896.855c0 .473 8.908.856 19.896.856z" fill="#263238"/><path d="m321.46 211.599c-3.837 0-6.964-3.137-6.964-6.986 0-3.85 3.127-6.987 6.964-6.987s6.963 3.137 6.963 6.987c0 3.849-3.126 6.986-6.963 6.986zm0-12.547c-2.985 0-5.543 2.424-5.543 5.561 0 2.994 2.416 5.56 5.543 5.56 2.984 0 5.542-2.423 5.542-5.56 0-2.995-2.416-5.561-5.542-5.561z" fill="#3e8eae"/><path d="m299.858 151.57c.852 2.709 1.847 4.991 3.268 6.844 1.421 1.997 3.127 3.565 4.974 5.561 1.848 1.854 3.837 4.135 4.832 6.987 1.137 2.709 1.137 5.846.284 8.412-.995-2.709-1.847-4.99-3.268-6.844-1.421-1.996-3.127-3.564-4.974-5.56-1.848-1.854-3.837-4.135-4.832-6.987-1.137-2.709-1.137-5.704-.284-8.413z" fill="#e0e0e0"/><path d="m293.89 159.982c.853 2.71 1.847 4.991 3.269 6.845 1.421 1.996 3.126 3.564 4.973 5.56 1.848 1.854 3.837 4.135 4.832 6.987 1.137 2.709 1.137 5.846.284 8.413-.994-2.71-1.847-4.991-3.268-6.845-1.421-1.996-3.127-3.564-4.974-5.56-1.847-1.854-3.837-4.135-4.832-6.987-.995-2.709-1.137-5.703-.284-8.413z" fill="#e0e0e0"/><path d="m242.445 124.764c10.942 8.413 14.921 3.565 20.464 12.405-2.132-12.547-9.664-15.969-17.054-16.112-7.247-.142-6.253 1.569-3.41 3.707z" fill="#263238"/></svg>