<svg width="213" height="40" viewBox="0 0 213 40" fill="none" xmlns="http://www.w3.org/2000/svg">
<path d="M20.1804 0C9.03885 0 0 8.95805 0 20C0 31.0419 9.03885 40 20.1804 40C31.3219 40 40.3608 31.0419 40.3608 20C40.3608 8.95805 31.3219 0 20.1804 0ZM29.779 29.5129H24.9865V20C24.9865 19.3369 24.8637 18.728 24.6042 18.1597C24.3448 17.5913 24.0035 17.0907 23.5665 16.6576C23.1296 16.2246 22.6244 15.8863 22.051 15.6292C21.4775 15.3721 20.8494 15.2503 20.194 15.2503C19.525 15.2503 18.9106 15.3721 18.3371 15.6292C17.7637 15.8863 17.2585 16.2246 16.8215 16.6576C16.3846 17.0907 16.0433 17.5913 15.7838 18.1597C15.5244 18.728 15.4015 19.3505 15.4015 20C15.4015 20.6631 15.5244 21.272 15.7838 21.8403C16.0433 22.4087 16.3846 22.9093 16.8215 23.3424C17.2585 23.7754 17.7637 24.1137 18.3371 24.3708C18.9106 24.6279 19.5387 24.7497 20.194 24.7497V29.4993C18.8696 29.4993 17.6135 29.2558 16.4529 28.7551C15.2923 28.2544 14.2683 27.5778 13.3944 26.7253C12.5206 25.8593 11.8379 24.8579 11.3463 23.6942C10.8412 22.544 10.5954 21.2991 10.5954 19.9865C10.5954 18.6739 10.8412 17.429 11.3463 16.2788C11.8515 15.1286 12.5342 14.1137 13.3944 13.2476C14.2683 12.3816 15.2787 11.705 16.4529 11.2179C17.6135 10.7172 18.8696 10.4736 20.194 10.4736C21.5185 10.4736 22.7746 10.7172 23.9352 11.2179C25.0958 11.7185 26.1198 12.3951 26.9937 13.2476C27.8675 14.1137 28.5502 15.115 29.0417 16.2788C29.5469 17.429 29.7927 18.6739 29.7927 19.9865V29.5129H29.779Z" fill="#DB1F26"/>
<path d="M164.966 22.3139L168.461 19.364L172.516 15.9405C172.011 14.7903 171.328 13.7754 170.468 12.9093C169.786 12.2328 169.021 11.6779 168.174 11.2314C168.161 11.2179 168.147 11.2179 168.12 11.2043C167.888 11.0825 167.656 10.9743 167.41 10.866C166.386 10.433 165.293 10.1894 164.147 10.1353C163.996 10.1218 163.833 10.1218 163.682 10.1218C162.358 10.1218 161.102 10.3654 159.941 10.866C158.781 11.3667 157.757 12.0433 156.883 12.8958C156.009 13.7618 155.326 14.7632 154.835 15.9269C154.329 17.0771 154.084 18.3221 154.084 19.6346C154.084 19.7835 154.084 19.9459 154.097 20.0947C154.152 21.2314 154.398 22.3139 154.835 23.3288C154.944 23.5724 155.053 23.8024 155.176 24.0325C155.176 24.046 155.19 24.0595 155.19 24.0731C155.64 24.9256 156.2 25.6834 156.883 26.36C157.32 26.793 157.798 27.1854 158.316 27.5237C158.876 27.9026 159.45 28.2138 160.078 28.4574C161.252 28.9175 162.453 29.161 163.682 29.161C164.911 29.161 166.113 28.931 167.287 28.4574C168.461 27.9973 169.526 27.2936 170.468 26.36L167.068 22.9905C166.604 23.4506 166.072 23.8024 165.485 24.0325C164.898 24.2625 164.297 24.3708 163.682 24.3708C163.15 24.3708 162.617 24.2896 162.098 24.1137C162.085 24.1137 162.085 24.1137 162.071 24.1001C162.044 24.0866 162.03 24.0866 162.017 24.0731C161.948 24.046 161.88 24.0189 161.812 23.9919C161.238 23.7348 160.733 23.3965 160.296 22.9635C159.9 22.571 159.573 22.111 159.327 21.5968C159.299 21.5426 159.272 21.475 159.258 21.4208C159.026 20.839 158.917 20.2436 158.917 19.6346C158.917 19.0257 159.026 18.4303 159.258 17.8484C159.34 17.6455 159.436 17.4425 159.545 17.253C159.559 17.226 159.573 17.1989 159.586 17.1719L159.6 17.1583C159.805 16.8336 160.037 16.5494 160.31 16.2788C160.583 16.0081 160.87 15.7781 161.197 15.5751L161.211 15.5616C161.238 15.548 161.266 15.5345 161.293 15.521C161.484 15.4127 161.689 15.318 161.894 15.2368C162.481 15.0068 163.082 14.8985 163.696 14.8985C164.31 14.8985 164.911 15.0068 165.498 15.2368C165.553 15.2639 165.621 15.2909 165.676 15.3045C165.717 15.318 165.744 15.3451 165.785 15.3586L161.88 18.6604L164.966 22.3139ZM149.714 23.0176C149.278 22.5846 148.936 22.0839 148.677 21.5156C148.417 20.9472 148.294 20.3248 148.294 19.6752V16.5765H151.626V11.8268H148.294V2.54398H143.502V19.6617C143.502 20.9743 143.748 22.2192 144.253 23.3694C144.758 24.5196 145.441 25.5345 146.301 26.4005C147.175 27.2666 148.185 27.9432 149.359 28.4303C150.52 28.931 151.776 29.1746 153.101 29.1746V24.4249C152.432 24.4249 151.817 24.3031 151.244 24.046C150.643 23.7889 150.138 23.4506 149.714 23.0176ZM212.263 15.954C211.758 14.8038 211.075 13.7889 210.215 12.9229C209.341 12.0568 208.33 11.3802 207.156 10.8931C205.996 10.3924 204.739 10.1489 203.415 10.1489C201.667 10.1489 200.07 10.5819 198.623 11.4479V2.54398H193.83V29.1881H198.623V19.6617C198.623 18.9987 198.745 18.3897 199.005 17.8214C199.264 17.253 199.606 16.7524 200.043 16.3194C200.479 15.8863 200.985 15.548 201.558 15.2909C202.132 15.0338 202.76 14.912 203.415 14.912C204.084 14.912 204.698 15.0338 205.272 15.2909C205.845 15.548 206.351 15.8863 206.788 16.3194C207.224 16.7524 207.566 17.253 207.825 17.8214C208.085 18.3897 208.208 19.0122 208.208 19.6617V29.1746H213V19.6617C213 18.3491 212.754 17.1177 212.263 15.954ZM180.19 16.3058C180.654 15.8457 181.187 15.4939 181.774 15.2639C182.361 15.0338 182.962 14.9256 183.576 14.9256C184.19 14.9256 184.791 15.0338 185.378 15.2639C185.965 15.4939 186.498 15.8322 186.962 16.3058L190.362 12.9364C189.42 12.0027 188.368 11.2991 187.181 10.839C186.006 10.3789 184.805 10.1353 183.576 10.1353C182.347 10.1353 181.146 10.3654 179.971 10.839C178.797 11.2991 177.732 12.0027 176.79 12.9364C175.848 13.8701 175.138 14.912 174.674 16.0893C174.209 17.253 173.964 18.4438 173.964 19.6617C173.964 20.8796 174.196 22.0704 174.674 23.2341C175.138 24.3978 175.848 25.4533 176.79 26.387C177.732 27.3207 178.783 28.0244 179.971 28.4844C181.146 28.9445 182.347 29.1881 183.576 29.1881C184.805 29.1881 186.006 28.9581 187.181 28.4844C188.355 28.0244 189.42 27.3207 190.362 26.387L186.962 23.0176C186.498 23.4777 185.965 23.8295 185.378 24.0595C184.791 24.2896 184.19 24.3978 183.576 24.3978C182.962 24.3978 182.361 24.2896 181.774 24.0595C181.187 23.8295 180.654 23.4912 180.19 23.0176C179.726 22.5575 179.371 22.0298 179.138 21.4479C178.906 20.866 178.797 20.2706 178.797 19.6617C178.797 19.0528 178.906 18.4574 179.138 17.8755C179.371 17.2936 179.712 16.7659 180.19 16.3058ZM64.6373 12.9364C63.7635 12.0704 62.7531 11.3938 61.5789 10.9066C60.4183 10.406 59.1621 10.1624 57.8377 10.1624C56.5133 10.1624 55.2571 10.406 54.0966 10.9066C52.936 11.4073 51.9119 12.0839 51.0381 12.9364C50.1643 13.8024 49.4816 14.8038 48.99 15.9675C48.4848 17.1177 48.2391 18.3627 48.2391 19.6752C48.2391 20.9878 48.4848 22.2328 48.99 23.383C49.4952 24.5332 50.1779 25.548 51.0381 26.4141C51.9119 27.2801 52.9223 27.9567 54.0966 28.4438C55.2571 28.9445 56.5133 29.1881 57.8377 29.1881V24.4384C57.1687 24.4384 56.5543 24.3166 55.9808 24.0595C55.4073 23.8024 54.9021 23.4641 54.4652 23.0311C54.0283 22.5981 53.6869 22.0974 53.4275 21.5291C53.1681 20.9608 53.0452 20.3383 53.0452 19.6888C53.0452 19.0257 53.1681 18.4168 53.4275 17.8484C53.6869 17.2801 54.0283 16.7794 54.4652 16.3464C54.9021 15.9134 55.4073 15.5751 55.9808 15.318C56.5543 15.0609 57.1823 14.9391 57.8377 14.9391C58.5068 14.9391 59.1212 15.0609 59.6946 15.318C60.2681 15.5751 60.7733 15.9134 61.2102 16.3464C61.6471 16.7794 61.9885 17.2801 62.2479 17.8484C62.5073 18.4168 62.6302 19.0392 62.6302 19.6888V29.2016H67.4227V19.6888C67.4227 18.3762 67.1769 17.1313 66.6718 15.9811C66.1802 14.8038 65.4975 13.7889 64.6373 12.9364ZM83.821 19.6617C83.821 20.3248 83.6981 20.9337 83.4387 21.502C83.1792 22.0704 82.8379 22.571 82.401 23.0041C81.9641 23.4371 81.4589 23.7754 80.8854 24.0325C80.3119 24.2896 79.6839 24.4114 79.0285 24.4114C78.3594 24.4114 77.745 24.2896 77.1716 24.0325C76.5981 23.7754 76.0929 23.4371 75.656 23.0041C75.2191 22.571 74.8777 22.0704 74.6183 21.502C74.3589 20.9337 74.236 20.3112 74.236 19.6617V10.1489H69.4435V19.6617C69.4435 20.9743 69.6892 22.2192 70.1944 23.3694C70.6996 24.5196 71.3823 25.5345 72.2425 26.4005C73.1164 27.2666 74.1268 27.9432 75.301 28.4303C76.4616 28.931 77.7177 29.1746 79.0421 29.1746C80.3666 29.1746 81.6227 28.931 82.7833 28.4303C83.9439 27.9296 84.9679 27.253 85.8418 26.4005C86.7156 25.5345 87.3983 24.5332 87.8898 23.3694C88.395 22.2192 88.6408 20.9743 88.6408 19.6617V10.1489H83.8483V19.6617H83.821ZM105.025 19.6617C105.025 20.3248 104.903 20.9337 104.643 21.502C104.384 22.0704 104.042 22.571 103.605 23.0041C103.168 23.4371 102.663 23.7754 102.09 24.0325C101.516 24.2896 100.888 24.4114 100.233 24.4114C99.5639 24.4114 98.9494 24.2896 98.376 24.0325C97.8025 23.7754 97.2973 23.4371 96.8604 23.0041C96.4235 22.571 96.0821 22.0704 95.8227 21.502C95.5633 20.9337 95.4404 20.3112 95.4404 19.6617C95.4404 18.9987 95.5633 18.3897 95.8227 17.8214C96.0821 17.253 96.4235 16.7524 96.8604 16.3194C97.2973 15.8863 97.8025 15.548 98.376 15.2909C98.9494 15.0338 99.5775 14.912 100.233 14.912V10.1489C98.9085 10.1489 97.6523 10.3924 96.4918 10.8931C95.3312 11.3938 94.3071 12.0704 93.4333 12.9229C92.5594 13.7889 91.8768 14.7903 91.3852 15.954C90.88 17.1042 90.6343 18.3491 90.6343 19.6617C90.6343 20.9743 90.88 22.2192 91.3852 23.3694C91.8904 24.5196 92.5731 25.5345 93.4333 26.4005C94.3071 27.2666 95.3175 27.9432 96.4918 28.4303C97.6523 28.931 98.9085 29.1746 100.233 29.1746C101.557 29.1746 102.813 28.931 103.974 28.4303C105.135 27.9296 106.159 27.253 107.033 26.4005C107.906 25.5345 108.589 24.5332 109.081 23.3694C109.586 22.2192 109.832 20.9743 109.832 19.6617V2.54398H105.039V19.6617H105.025ZM113.655 29.1746H118.447V10.1489H113.655V29.1746ZM113.655 8.2544H118.447V2.54398H113.655V8.2544ZM138.696 12.9364C137.822 12.0704 136.812 11.3938 135.637 10.9066C134.477 10.406 133.221 10.1624 131.896 10.1624C130.572 10.1624 129.316 10.406 128.155 10.9066C126.994 11.4073 125.97 12.0839 125.097 12.9364C124.223 13.8024 123.54 14.8038 123.048 15.9675C122.543 17.1177 122.298 18.3627 122.298 19.6752C122.298 20.9878 122.543 22.2328 123.048 23.383C123.554 24.5332 124.236 25.548 125.097 26.4141C125.97 27.2801 126.981 27.9567 128.155 28.4438C129.316 28.9445 130.572 29.1881 131.896 29.1881C133.221 29.1881 134.477 28.9445 135.637 28.4438C136.798 27.9432 137.822 27.2666 138.696 26.4141C139.57 25.548 140.252 24.5467 140.744 23.383C141.249 22.2328 141.495 20.9878 141.495 19.6752C141.495 18.3627 141.249 17.1177 140.744 15.9675C140.239 14.8038 139.556 13.7889 138.696 12.9364ZM136.306 21.5156C136.047 22.0839 135.706 22.5846 135.269 23.0176C134.832 23.4506 134.327 23.7889 133.753 24.046C133.18 24.3031 132.552 24.4249 131.896 24.4249C131.227 24.4249 130.613 24.3031 130.039 24.046C129.466 23.7889 128.961 23.4506 128.524 23.0176C128.087 22.5846 127.745 22.0839 127.486 21.5156C127.227 20.9472 127.104 20.3248 127.104 19.6752C127.104 19.0122 127.227 18.4033 127.486 17.8349C127.745 17.2666 128.087 16.7659 128.524 16.3329C128.961 15.8999 129.466 15.5616 130.039 15.3045C130.613 15.0474 131.241 14.9256 131.896 14.9256C132.565 14.9256 133.18 15.0474 133.753 15.3045C134.327 15.5616 134.832 15.8999 135.269 16.3329C135.706 16.7659 136.047 17.2666 136.306 17.8349C136.566 18.4033 136.689 19.0257 136.689 19.6752C136.689 20.3248 136.566 20.9472 136.306 21.5156Z" fill="#737373"/>
</svg>
