<svg fill="none" height="35" viewBox="0 0 200 35" width="200" xmlns="http://www.w3.org/2000/svg" xmlns:xlink="http://www.w3.org/1999/xlink"><clipPath id="a"><path d="m0 0h199.277v35h-199.277z"/></clipPath><g clip-path="url(#a)"><path d="m27.5905.632971c-6.2925-2.159571-13.851 1.414889-20.36699 8.563829-6.06915 6.6277-8.45213 14.8936-6.627661 20.9255.148936-5.7712 3.127661-12.6968 8.563831-18.6915 6.03192-6.59038 12.36172-10.835063 18.43082-10.797829zm6.5532 5.622339c-4.133-4.31915-13.7393-1.89893-21.4468 5.43619-7.70744 7.3723-10.61169 16.8298-6.47871 21.1489 1.34042 1.4149 3.23936 2.0851 5.47341 2.1596-.7819-.3723-1.4894-.8564-2.08511-1.4894-4.13298-4.3191-1.71277-13.3298 5.39891-20.1064 7.1117-6.77655 16.2341-8.74995 20.367-4.4308.149.18617.2979.3351.4469.52127-.2607-1.22872-.8192-2.34574-1.6756-3.23936z" fill="#f16822"/><path d="m33.9576 12.2872c-.2979-.1862-.6702-.2607-1.0053-.2607-.8192 0-1.6383.3351-2.1224.4841-2.8298.9681-5.734 2.7181-7.9681 4.7659-1.75 1.6011-3.351 3.3883-4.7287 5.2873 1.4894-3.3511 3.8724-5.9202 6.1064-7.7819 1.4521-1.1915 2.8298-2.0852 3.8351-2.6437.5213-.2978.9309-.5212 1.2287-.6329.149-.0745.2607-.1117.3351-.149.0745-.0372.1117-.0372.1117-.0372l-.1117-.8936c-.3723-.0373-.7446-.0373-1.0797-.0373-6.3298 0-11.0586 3.7979-14.149 7.5585-1.9361 2.3458-3.2766 4.6543-3.984 6.1064l-.2607 2.0107c.782-1.5266 3.2766-5.7341 5.4734-8.2288 2.8671-3.2393 6.9256-6.2925 12.1383-6.5531-1.0425.5957-2.5319 1.5266-4.0957 2.7925-2.9787 2.4575-6.3298 6.2553-7.5213 11.5426l.8564.1861s0 0 0-.0372c.0745-.3351.3351-.7819.6702-1.1915 3.2394-4.3564 6.8883-9.1596 12.1755-11.0585 2.6437-.9681 4.1703.2234 2.8298 2.8298-1.5638 3.0532-3.984 6.2553-6.4042 8.7128-.8936.9308-3.4628 2.7553-4.8777 2.1968-2.5319-1.0054 1.9362-5.2873 2.9415-5.9203.4468-.2978 1.7128-1.2287 2.2713-.7446.2606.2234.2234.8564 0 1.2659.5957-.7819 2.0851-2.8298-.1117-3.0904-1.1915-.0372-3.0532 1.3032-3.9096 2.0851-1.5266 1.3404-5.2128 5.8458-2.4947 7.7075.0373 0 .0373.0372.0745.0372 2.6436 1.75 5.9947-1.9734 7.4096-3.7607 1.3032-1.6382 8.7872-10.984 6.367-12.5478zm-7.4096 9.867c.0373-.0372.0745-.0745.1117-.1489-.0744.0744-.1489.1489-.2234.1861zm26.9202-7.3723c-.9308-.9309-1.9734-1.6383-3.2021-2.1596s-2.5319-.7819-3.9468-.7819c-1.3777 0-2.7181.2606-3.9468.7819s-2.3085 1.2659-3.2021 2.1596c-.9309.9308-1.6383 1.9734-2.1596 3.2021s-.7819 2.5319-.7819 3.9468c0 1.3777.2606 2.7181.7819 3.9468s1.2659 2.3085 2.1596 3.2021c.9308.9309 1.9734 1.6383 3.2021 2.1596s2.5319.7819 3.9468.7819c1.3777 0 2.7181-.2606 3.9468-.7819s2.2713-1.2287 3.2021-2.1596c.149-.1489.2979-.2978.4096-.4095v2.4574h2.5692v-9.1968c0-1.3777-.2607-2.7181-.782-3.9468-.5585-1.2287-1.2659-2.3085-2.1968-3.2021zm.4096 7.484c-.0372.8936-.2606 1.7872-.5957 2.6064-.4096.8936-.9309 1.7127-1.6011 2.383-.6702.6702-1.4894 1.2287-2.4202 1.601-.9309.4096-1.899.5958-2.9043.5958-1.0425 0-2.0106-.1862-2.9042-.5958-.9309-.4095-1.7128-.9308-2.4202-1.601-.6703-.6703-1.2288-1.4894-1.6011-2.4203-.4096-.9308-.5957-1.8989-.5957-2.9042 0-1.0426.1861-2.0106.5957-2.9043.4096-.9308.9308-1.7127 1.6011-2.4202.6702-.6702 1.4893-1.2287 2.4202-1.601.9308-.4096 1.8989-.5958 2.9042-.5958 1.0426 0 2.0107.1862 2.9043.5958.9308.4095 1.7127.9308 2.4202 1.601.6702.6702 1.2287 1.4894 1.6011 2.4202.4095.9309.5957 1.899.5957 2.9043zm19.5851.5957c0 .782-.1489 1.5266-.4468 2.1969-.2979.6702-.7074 1.2659-1.2287 1.7872-.5213.484-1.117.8936-1.7873 1.1915-.6702.2979-1.4148.4468-2.1968.4468-.7819 0-1.5266-.1489-2.1968-.4468s-1.2659-.7075-1.7872-1.1915c-.5213-.4841-.9309-1.0798-1.2287-1.7872-.2979-.6703-.4468-1.4149-.4468-2.1969v-.0372l-.0373-10.0532h-2.6436l.0372 10.0532v.0372c0 1.1171.2234 2.1969.6703 3.2022.4468 1.0053 1.0425 1.8617 1.7872 2.6436.7447.7447 1.6383 1.3404 2.6436 1.7872s2.0851.6702 3.2021.6702c1.1171 0 2.1968-.2234 3.2022-.6702 1.0053-.4468 1.8617-1.0425 2.6436-1.7872.7447-.7447 1.3404-1.6383 1.75-2.6436.4468-1.0053.633-2.0851.633-3.2022v-10.0904h-2.5692zm22.4149-7.1489c-.6702-1.117-1.75-2.0106-3.2394-2.7553-1.4521-.7447-2.9042-1.117-4.2819-1.117-1.3776 0-2.7181.2606-3.9468.7819s-2.3085 1.2659-3.2021 2.1596c-.9309.9308-1.6383 1.9734-2.1596 3.2021s-.7819 2.5319-.7819 3.9468c0 1.3777.2606 2.7181.7819 3.9468s1.266 2.3085 2.1596 3.2021c.9308.9309 1.9734 1.6383 3.2021 2.1596s2.5319.7819 3.9468.7819 2.7181-.2606 3.9468-.7819c1.2288-.5213 2.3085-1.266 3.2022-2.1596.9308-.9308 1.6383-1.9734 2.1595-3.2021.5213-1.2287.7819-2.5319.7819-3.9468v-16.49469h-2.5691zm-.5585 9.1223c-.4096.9309-.9309 1.7128-1.6011 2.4203-.6702.6702-1.4893 1.2287-2.4202 1.601-.9308.4096-1.8989.5958-2.9042.5958-1.0426 0-2.0107-.1862-2.9043-.5958-.9308-.4095-1.7128-.9308-2.4202-1.601-.6702-.6703-1.2287-1.4894-1.6011-2.4203-.4095-.9308-.5957-1.8989-.5957-2.9042 0-1.0426.1862-2.0106.5957-2.9043.4096-.9308.9309-1.7127 1.6011-2.4202.6702-.6702 1.4894-1.2287 2.4202-1.601.9309-.4096 1.8989-.5958 2.9043-.5958 1.0425 0 2.0106.1862 2.9042.5958.9309.4095 1.7128.9308 2.4202 1.601.6702.6702 1.2288 1.4894 1.6011 2.4202.4096.9309.5957 1.899.5957 2.9043-.0372 1.0053-.2234 1.9734-.5957 2.9042zm6.1807 6.2926h2.569v-18.3564h-2.569zm1.341-25.69149c-.447 0-.82.14894-1.117.44681-.298.29787-.447.67021-.447 1.11702s.149.81915.447 1.11702c.297.29787.67.44681 1.117.44681.446 0 .819-.14894 1.117-.44681.297-.29787.446-.67021.446-1.11702s-.149-.81915-.446-1.11702c-.298-.29787-.671-.44681-1.117-.44681zm21.26 9.34579c-.931-.9309-1.973-1.6383-3.202-2.1596s-2.532-.7819-3.947-.7819c-1.377 0-2.718.2606-3.947.7819-1.228.5213-2.308 1.2659-3.202 2.1596-.931.9308-1.638 1.9734-2.159 3.2021-.522 1.2287-.782 2.5319-.782 3.9468 0 1.3777.26 2.7181.782 3.9468.521 1.2287 1.266 2.3085 2.159 3.2021.931.9309 1.974 1.6383 3.202 2.1596 1.229.5213 2.532.7819 3.947.7819 1.378 0 2.718-.2606 3.947-.7819s2.309-1.266 3.202-2.1596c.931-.9308 1.639-1.9734 2.16-3.2021s.782-2.5319.782-3.9468c0-1.3777-.261-2.7181-.782-3.9468s-1.266-2.3085-2.16-3.2021zm-.223 10.0531c-.41.9309-.931 1.7128-1.601 2.4203-.67.6702-1.49 1.2287-2.42 1.601-.931.4096-1.899.5958-2.905.5958-1.042 0-2.01-.1862-2.904-.5958-.931-.4095-1.713-.9308-2.42-1.601-.67-.6703-1.229-1.4894-1.601-2.4203-.41-.9308-.596-1.8989-.596-2.9042 0-1.0426.186-2.0106.596-2.9043.409-.9308.931-1.7127 1.601-2.4202.67-.6702 1.489-1.2287 2.42-1.601.931-.4096 1.899-.5958 2.904-.5958 1.043 0 2.011.1862 2.905.5958.93.4095 1.712.9308 2.42 1.601.67.6702 1.228 1.4894 1.601 2.4202.409.9309.596 1.899.596 2.9043s-.187 1.9734-.596 2.9042zm9.867-19.39889h-2.569v7.33509h-1.862v2.5692h1.862v15.7872h2.569v-15.7872h4.803v-2.5692h-4.803zm25.096 15.71279c-.075-1.117-.336-2.1596-.782-3.1649-.522-1.2287-1.229-2.3085-2.16-3.2021-.931-.9309-1.973-1.6383-3.202-2.1596s-2.532-.7819-3.947-.7819c-1.378 0-2.718.2606-3.947.7819-1.228.5213-2.308 1.2659-3.202 2.1596-.931.9308-1.638 1.9734-2.159 3.2021-.522 1.2287-.782 2.5319-.782 3.9468 0 1.3777.26 2.7181.782 3.9468.521 1.2287 1.266 2.3085 2.159 3.2021.931.9309 1.974 1.6383 3.202 2.1596 1.229.5213 2.532.7819 3.947.7819 1.378 0 2.718-.2606 3.947-.7819s2.308-1.266 3.202-2.1596c.931-.9308 1.638-1.9734 2.16-3.2021l.111-.2979h-2.829c-.336.633-.745 1.1915-1.266 1.6756-.671.6702-1.49 1.2287-2.421 1.601-.93.4096-1.899.5958-2.904.5958-1.042 0-2.01-.1862-2.904-.5958-.931-.4095-1.713-.9308-2.42-1.601-.671-.6703-1.229-1.4894-1.601-2.4203-.41-.9308-.596-1.8989-.596-2.9042 0-.2606 0-.4841.037-.7819zm-15.415-4.5426c.67-.6702 1.489-1.2287 2.42-1.601.931-.4096 1.899-.5958 2.904-.5958 1.043 0 2.011.1862 2.904.5958.931.4095 1.713.9308 2.421 1.601.558.5958 1.042 1.266 1.377 1.9734h-13.478c.409-.7447.856-1.4149 1.452-1.9734zm22.564 0c.67-.6702 1.489-1.2287 2.42-1.601.931-.4096 1.899-.5958 2.904-.5958 1.043 0 2.011.1862 2.904.5958.931.4095 1.713.9308 2.42 1.601.484.4841.894 1.0426 1.229 1.6383h2.867l-.112-.2606c-.521-1.2287-1.228-2.3085-2.159-3.2021-.931-.9309-1.973-1.6383-3.202-2.1596s-2.532-.7819-3.947-.7819c-1.378 0-2.718.2606-3.947.7819s-2.308 1.2659-3.202 2.1596c-.931.9308-1.638 1.9734-2.16 3.2021-.521 1.2287-.781 2.5319-.781 3.9468 0 1.3777.26 2.7181.781 3.9468.522 1.2287 1.266 2.3085 2.16 3.2021.931.9309 1.973 1.6383 3.202 2.1596s2.532.7819 3.947.7819c1.378 0 2.718-.2606 3.947-.7819s2.308-1.266 3.202-2.1596c.931-.9308 1.638-1.9734 2.159-3.2021l.112-.2979h-2.83c-.335.633-.744 1.1915-1.266 1.6756-.67.6702-1.489 1.2287-2.42 1.601-.931.4096-1.899.5958-2.904.5958-1.043 0-2.011-.1862-2.904-.5958-.931-.4095-1.713-.9308-2.42-1.601-.671-.6703-1.229-1.4894-1.602-2.4203-.409-.9308-.595-1.8989-.595-2.9042 0-1.0426.186-2.0106.595-2.9043.373-.9308.931-1.75 1.602-2.4202zm33.25 3.5c0-1.1542-.224-2.234-.671-3.2393-.447-1.0054-1.042-1.8617-1.787-2.6437-.745-.7446-1.638-1.3404-2.644-1.7872-1.005-.4468-2.085-.6702-3.202-.6702-.521 0-1.079.0745-1.601.1862-.521.1117-1.042.2978-1.564.5212-.484.2234-.968.4841-1.377.8192-.41.3351-.745.6702-1.043 1.0798v-8.93619h-2.643v25.72869h2.68v-11.0585c0-.7447.149-1.4521.447-2.1223s.708-1.266 1.229-1.7873c.484-.5212 1.08-.9308 1.75-1.2659s1.378-.4841 2.122-.4841c.745 0 1.49.149 2.16.4469.67.2978 1.303.7074 1.787 1.1914.521.4841.931 1.0798 1.229 1.7873.298.6702.447 1.4149.447 2.1968v.0372l.037 11.0213h2.644z" fill="#456a74"/></g></svg>