<svg fill="none" height="395" viewBox="0 0 530 395" width="530" xmlns="http://www.w3.org/2000/svg" xmlns:xlink="http://www.w3.org/1999/xlink"><clipPath id="a"><path d="m0 0h530v394.956h-530z"/></clipPath><g clip-path="url(#a)"><g fill="#ebebeb"><path d="m530 347.044h-530v.212h530z"/><path d="m476.894 364.11h-23.002v.212h23.002z"/><path d="m365.382 358.704h-36.146v.212h36.146z"/><path d="m467.566 354.358h-47.17v.212h47.17z"/><path d="m183.38 359.658h-11.766v.212h11.766z"/><path d="m162.18 359.658h-40.704v.212h40.704z"/><path d="m99.6403 355.206h-29.362v.212h29.362z"/><path d="m251.22 299.768h-204.6858c-3.286 0-6.042-2.756-6.042-6.042v-287.684c0-3.286 2.756-6.042 6.042-6.042h204.6858c3.286 0 6.042 2.756 6.042 6.042v287.684c0 3.392-2.65 6.042-6.042 6.042zm-204.6858-299.556c-3.18 0-5.83 2.544-5.83 5.83v287.684c0 3.18 2.544 5.83 5.83 5.83h204.6858c3.18 0 5.83-2.544 5.83-5.83v-287.684c0-3.18-2.544-5.83-5.83-5.83z"/><path d="m480.498 299.768h-204.685c-3.286 0-6.042-2.756-6.042-6.042v-287.684c0-3.286 2.756-6.042 6.042-6.042h204.685c3.286 0 6.042 2.756 6.042 6.042v287.684c0 3.392-2.65 6.042-6.042 6.042zm-204.685-299.556c-3.18 0-5.83 2.544-5.83 5.83v287.684c0 3.18 2.544 5.83 5.83 5.83h204.685c3.18 0 5.83-2.544 5.83-5.83v-287.684c0-3.18-2.544-5.83-5.83-5.83z"/></g><path d="m121.901 126.882c12.19 0 22.154-9.964 22.154-22.154s-9.964-22.154-22.154-22.154h-2.756v44.308z" fill="#e0e0e0"/><path d="m119.144 126.882c12.236 0 22.154-9.919 22.154-22.154 0-12.2353-9.918-22.154-22.154-22.154-12.235 0-22.1538 9.9187-22.1538 22.154 0 12.235 9.9188 22.154 22.1538 22.154z" fill="#f5f5f5"/><path d="m118.19 107.484c-16.324 0-29.6802-13.356-29.6802-29.68v-17.702c0-1.59 1.272-2.756 2.756-2.756 1.59 0 2.756 1.272 2.756 2.756v17.702c0 13.25 10.8122 24.062 24.0622 24.062 1.59 0 2.756 1.272 2.756 2.756.106 1.59-1.166 2.862-2.65 2.862z" fill="#e0e0e0"/><path d="m66.568 75.684h49.29c3.392 0 5.83-3.18 4.982-6.466l-4.24-16.112c-.636-2.226-2.65-3.816-4.982-3.816h-40.704c-2.332 0-4.346 1.59-4.982 3.816l-4.24 16.112c-.954 3.286 1.484 6.466 4.876 6.466z" fill="#f5f5f5"/><path d="m434.918 126.882c12.19 0 22.154-9.964 22.154-22.154s-9.964-22.154-22.154-22.154h-2.756v44.308z" fill="#e0e0e0"/><path d="m432.162 126.882c12.235 0 22.154-9.919 22.154-22.154 0-12.2353-9.919-22.154-22.154-22.154s-22.154 9.9187-22.154 22.154c0 12.235 9.919 22.154 22.154 22.154z" fill="#f5f5f5"/><path d="m431.208 107.484c-16.324 0-29.68-13.356-29.68-29.68v-17.702c0-1.59 1.272-2.756 2.756-2.756 1.59 0 2.756 1.272 2.756 2.756v17.702c0 13.25 10.812 24.062 24.062 24.062 1.59 0 2.756 1.272 2.756 2.756.106 1.59-1.166 2.862-2.65 2.862z" fill="#e0e0e0"/><path d="m379.586 75.684h49.29c3.392 0 5.83-3.18 4.982-6.466l-4.24-16.112c-.636-2.226-2.65-3.816-4.982-3.816h-40.81c-2.332 0-4.346 1.59-4.982 3.816l-4.24 16.112c-.848 3.286 1.59 6.466 4.982 6.466z" fill="#f5f5f5"/><path d="m142.007 276.524h16.112v-62.434h-16.112z" fill="#e6e6e6"/><path d="m98.3682 276.554h53.4238l8.056-73.14h-53.424z" fill="#f0f0f0"/><path d="m92.5381 276.554h55.2259l8.056-73.14h-55.226z" fill="#f5f5f5"/><path d="m143.736 270.83 6.89-61.586h-46.004l-6.7841 61.586z" fill="#fff"/><path d="m134.302 255.884.318-2.544c1.696-15.476-7.95-29.256-20.458-29.256l-.318 2.544c-1.696 15.476 7.95 29.256 20.458 29.256z" fill="#f5f5f5"/><path d="m62.6526 347.093h47.4884v-70.49h-47.4884z" fill="#e6e6e6"/><path d="m67.4155 347.044h-4.77v-13.568h9.752z" fill="#f0f0f0"/><path d="m195.83 347.093h47.488v-70.49h-47.488z" fill="#e6e6e6"/><path d="m62.6182 338.749h137.3758v-62.222h-137.3758z" fill="#f0f0f0"/><path d="m195.252 347.044h4.77v-13.568h-9.752z" fill="#f0f0f0"/><path d="m66.3282 305.509h129.9558v-25.122h-129.9558z" fill="#e6e6e6"/><path d="m122.642 296.8h17.384c7.526 0 14.734-3.074 19.928-8.586h-57.24c5.194 5.512 12.402 8.586 19.928 8.586z" fill="#f0f0f0"/><path d="m66.3282 334.662h129.9558v-25.122h-129.9558z" fill="#e6e6e6"/><path d="m122.642 325.95h17.384c7.526 0 14.734-3.074 19.928-8.586h-57.24c5.194 5.512 12.402 8.586 19.928 8.586z" fill="#f0f0f0"/><path d="m191.33 273.692h1.272c0-2.544 0-8.904.106-23.638.212-26.606.636-28.302.636-28.302l-2.968 12.296c-1.802 13.674.53 27.348.954 39.644z" fill="#e6e6e6"/><path d="m188.892 232.246c-4.24-4.982-13.25-6.466-22.366-7.738-3.604-.53 9.54 7.738 15.9 13.674 4.982 4.558 8.162 5.83 9.54 10.388.636-5.724.53-11.978-3.074-16.324z" fill="#e6e6e6"/><path d="m194.51 241.15c4.24-4.982 13.25-6.466 22.366-7.738 3.604-.53-9.54 7.738-15.9 13.674-4.982 4.558-8.162 5.83-9.54 10.388-.742-5.724-.636-11.978 3.074-16.324z" fill="#e6e6e6"/><path d="m192.708 220.586c3.18-6.042 11.13-11.66 20.034-13.78 3.498-.848-8.056 11.024-12.508 18.762-3.392 5.936-7.95 12.932-8.692 18.02-1.166-9.964-2.014-17.066 1.166-23.002z" fill="#e6e6e6"/><path d="m192.285 276.554c-3.71 0-6.89-1.908-7.102-4.346l-.636-4.134h15.37l-.636 4.134c-.106 2.438-3.18 4.346-6.996 4.346z" fill="#f0f0f0"/><path d="m200.976 269.77h-17.384l-.53-4.664h18.444z" fill="#f0f0f0"/><path d="m179.761 182.118h169.812v-154.866h-169.812z" fill="#e6e6e6"/><path d="m175.974 182.118h171.932v-154.866h-171.932z" fill="#f5f5f5"/><path d="m340.962 175.057v-140.9803h-158.258v140.9803z" fill="#fafafa"/><path d="m321.604 175.112-62.328-140.98h-21.094l62.222 140.98z" fill="#fff"/><path d="m294.468 175.112-62.328-140.98h-14.522l62.222 140.98z" fill="#fff"/><path d="m241.562 175.135v-140.9803h-8.162v140.9803z" fill="#e6e6e6"/><path d="m295.96 175.114v-140.98h-8.162v140.98z" fill="#e6e6e6"/><path d="m240.005 179.539v-150.6263h-10.388v150.6263z" fill="#f5f5f5"/><path d="m294.403 179.624v-150.626h-10.388v150.626z" fill="#f5f5f5"/><path d="m183.437 175.064.001-140.9799h-.742v140.9799z" fill="#e6e6e6"/><path d="m172.993 18.232h184.015c.53 0 .849.424.849.848 0 .53-.425.848-.849.848h-184.015c-.53 0-.848-.424-.848-.848s.424-.848.848-.848z" fill="#e6e6e6"/><path d="m349.482 24.062c.636 0 1.166-.53 1.166-1.166v-2.544c0-.636-.53-1.166-1.166-1.166s-1.166.53-1.166 1.166v2.544c0 .636.53 1.166 1.166 1.166z" fill="#e6e6e6"/><path d="m186.349 24.062c.636 0 1.166-.53 1.166-1.166v-2.544c0-.636-.53-1.166-1.166-1.166s-1.166.53-1.166 1.166v2.544c0 .636.53 1.166 1.166 1.166z" fill="#e6e6e6"/><path d="m173.305 140.393h171.826v-121.2637h-171.826z" fill="#e0e0e0" opacity=".6"/><path d="m360.717 242.422h-29.68c-3.18 0-5.724-2.544-5.724-5.724v-13.674c0-3.18 2.544-5.724 5.724-5.724h29.68c3.18 0 5.725 2.544 5.725 5.724v13.674c0 3.18-2.545 5.724-5.725 5.724z" fill="#fafafa"/><path d="m364.534 218.042h-37.206c-1.06 0-1.908-.848-1.908-1.908v-1.59c0-1.06.848-1.908 1.908-1.908h37.206c1.06 0 1.908.848 1.908 1.908v1.59c0 1.06-.848 1.908-1.908 1.908z" fill="#e6e6e6"/><path d="m325.949 270.3s.53 17.702 21.094 17.702 21.094-17.702 21.094-17.702z" fill="#f0f0f0"/><path d="m372.907 270.3s.53 17.702 21.094 17.702 21.094-17.702 21.094-17.702z" fill="#f0f0f0"/><path d="m404.92 242.422h-40.704c-4.346 0-7.844-3.498-7.844-7.844v-20.776c0-4.346 3.498-7.844 7.844-7.844h40.704c4.346 0 7.844 3.498 7.844 7.844v20.776c0 4.346-3.498 7.844-7.844 7.844z" fill="#f0f0f0"/><path d="m410.22 206.912h-51.091c-1.484 0-2.65-1.166-2.65-2.65v-2.12c0-1.484 1.166-2.65 2.65-2.65h51.091c1.484 0 2.65 1.166 2.65 2.65v2.12c-.106 1.484-1.272 2.65-2.65 2.65z" fill="#f5f5f5"/><path d="m310.506 347.094h5.3v-87.556h-5.3z" fill="#e6e6e6"/><path d="m464.704 242.422h-28.938v17.066h28.938z" fill="#e6e6e6"/><path d="m292.002 259.511h143.842v-17.066h-143.842z" fill="#f5f5f5"/><path d="m464.704 288.002h-28.938v17.066h28.938z" fill="#e6e6e6"/><path d="m292.002 304.977h143.842v-17.066h-143.842z" fill="#f5f5f5"/><path d="m454.307 347.094h5.3v-87.556h-5.3z" fill="#e6e6e6"/><path d="m430.483 347.094h5.3v-87.556h-5.3z" fill="#f5f5f5"/><path d="m292.062 347.094h5.3v-87.556h-5.3z" fill="#f5f5f5"/><path d="m265 394.956c113.513 0 205.534-5.363 205.534-11.978s-92.021-11.978-205.534-11.978-205.5342 5.363-205.5342 11.978 92.0212 11.978 205.5342 11.978z" fill="#f5f5f5"/><path d="m276.024 329.13h-135.256c-4.452 0-8.268-3.604-8.48-8.056l-12.084-234.79c-.212-4.452 3.18-8.056 7.632-8.056h135.256c4.452 0 8.268 3.604 8.48 8.056l12.084 234.896c.318 4.346-3.18 7.95-7.632 7.95z" fill="#456a74"/><path d="m276.024 329.13h-135.256c-4.452 0-8.268-3.604-8.48-8.056l-12.084-234.79c-.212-4.452 3.18-8.056 7.632-8.056h135.256c4.452 0 8.268 3.604 8.48 8.056l12.084 234.896c.318 4.346-3.18 7.95-7.632 7.95z" fill="#fff" opacity=".8"/><path d="m249.736 70.49h-14.946v1.06h14.946z" fill="#456a74"/><path d="m229.702 70.49h-5.512v1.06h5.512z" fill="#456a74"/><path d="m281.853 314.29h-129.32c-4.24 0-7.95-3.498-8.162-7.738l-11.554-224.614c-.212-4.24 3.074-7.738 7.314-7.738h129.32c4.24 0 7.95 3.498 8.162 7.738l11.554 224.614c.212 4.24-3.074 7.738-7.314 7.738z" fill="#3e8eae"/><path d="m281.854 309.096h-129.32c-1.484 0-2.862-1.272-2.968-2.862l-11.554-224.508c0-.848.318-1.378.53-1.696.318-.318.742-.636 1.59-.636h129.32c1.484 0 2.862 1.272 2.968 2.862l11.66 224.508c0 .848-.318 1.378-.53 1.696-.424.318-.848.636-1.696.636zm-141.722-229.49c-.742 0-1.166.318-1.378.53s-.53.742-.53 1.484l11.554 224.614c.106 1.378 1.378 2.544 2.756 2.544h129.32c.742 0 1.166-.318 1.378-.53s.53-.742.53-1.484l-11.554-224.508c-.106-1.378-1.378-2.544-2.756-2.544h-129.32z" fill="#fff"/><path d="m236.662 161.243c14.708-15.094 13.749-39.883-2.141-55.368-15.891-15.4844-40.696-15.8011-55.405-.707-14.708 15.094-13.75 39.883 2.141 55.368 15.891 15.484 40.696 15.801 55.405.707z" fill="#fff" opacity=".3"/><path d="m239.56 133.242c.318 5.512-.848 10.6-3.074 15.052-4.876 9.858-14.946 16.536-27.03 16.536s-22.896-6.678-28.726-16.536c-2.65-4.452-4.346-9.646-4.558-15.052-.954-17.49 12.508-31.694 29.998-31.694s32.436 14.204 33.39 31.694z" fill="#fff"/><path d="m236.486 148.294c-4.876 9.858-14.946 16.536-27.03 16.536s-22.897-6.678-28.727-16.536c7.738-5.3 17.066-8.48 27.454-8.48 10.389 0 20.035 3.18 28.303 8.48z" fill="#3e8eae"/><path d="m217.693 132.429c5.311-5.451 4.96-14.407-.784-20.004s-14.706-5.716-20.018-.266c-5.311 5.451-4.96 14.407.784 20.004 5.744 5.598 14.706 5.717 20.018.266z" fill="#3e8eae"/><path d="m263.303 226.946h-101.23c-1.802 0-3.392-1.484-3.392-3.286l-.742-14.84c-.106-1.802 1.272-3.286 3.074-3.286h101.23c1.802 0 3.392 1.484 3.392 3.286l.742 14.84c.106 1.802-1.272 3.286-3.074 3.286z" fill="#fff"/><path d="m232.351 197.266h-42.294c-1.802 0-3.392-1.484-3.392-3.286l-.212-3.18c-.106-1.802 1.272-3.286 3.074-3.286h42.294c1.802 0 3.392 1.484 3.392 3.286l.212 3.18c.106 1.908-1.272 3.286-3.074 3.286z" fill="#000" opacity=".3"/><path d="m248.039 298.284h-63.388c-3.074 0-5.724-2.544-5.83-5.618l-.424-7.314c-.106-3.074 2.226-5.618 5.3-5.618h63.388c3.074 0 5.724 2.544 5.83 5.618l.424 7.314c.106 3.074-2.226 5.618-5.3 5.618z" fill="#000" opacity=".3"/><path d="m265.212 262.774h-101.23c-1.802 0-3.392-1.484-3.392-3.286l-.742-14.84c-.106-1.802 1.272-3.286 3.074-3.286h101.23c1.802 0 3.392 1.484 3.392 3.286l.742 14.84c.106 1.802-1.272 3.286-3.074 3.286z" fill="#fff"/><g fill="#263238"><path d="m174.9 216.24c.106 2.014-1.484 3.604-3.392 3.604s-3.71-1.59-3.816-3.604 1.484-3.604 3.392-3.604 3.71 1.59 3.816 3.604z"/><path d="m186.029 216.24c.106 2.014-1.484 3.604-3.392 3.604-2.014 0-3.71-1.59-3.816-3.604s1.484-3.604 3.392-3.604 3.71 1.59 3.816 3.604z"/><path d="m197.159 216.24c.106 2.014-1.484 3.604-3.392 3.604-2.014 0-3.71-1.59-3.816-3.604s1.484-3.604 3.392-3.604 3.71 1.59 3.816 3.604z"/><path d="m208.289 216.24c.106 2.014-1.484 3.604-3.392 3.604s-3.71-1.59-3.816-3.604 1.484-3.604 3.392-3.604c2.014-.106 3.816 1.59 3.816 3.604z"/><path d="m176.808 252.068c.106 2.014-1.484 3.604-3.392 3.604-2.014 0-3.71-1.59-3.816-3.604s1.484-3.604 3.392-3.604 3.71 1.59 3.816 3.604z"/><path d="m187.938 252.068c.106 2.014-1.484 3.604-3.392 3.604-2.014 0-3.71-1.59-3.816-3.604s1.484-3.604 3.392-3.604 3.71 1.59 3.816 3.604z"/><path d="m199.068 252.068c.106 2.014-1.484 3.604-3.392 3.604-2.014 0-3.71-1.59-3.816-3.604s1.484-3.604 3.392-3.604c2.014 0 3.71 1.59 3.816 3.604z"/><path d="m210.197 252.068c.106 2.014-1.484 3.604-3.392 3.604-2.014 0-3.71-1.59-3.816-3.604s1.484-3.604 3.392-3.604c2.014 0 3.71 1.59 3.816 3.604z"/><path d="m221.327 252.068c.106 2.014-1.484 3.604-3.392 3.604s-3.71-1.59-3.816-3.604 1.484-3.604 3.392-3.604 3.71 1.59 3.816 3.604z"/><path d="m232.457 252.068c.106 2.014-1.484 3.604-3.392 3.604-2.014 0-3.71-1.59-3.816-3.604s1.484-3.604 3.392-3.604 3.71 1.59 3.816 3.604z"/></g><path d="m352.98 129.002c.318.424.424.636.53.848l.424.742c.318.53.53 1.06.848 1.59.53 1.06 1.06 2.12 1.484 3.18.954 2.12 1.696 4.24 2.332 6.466 1.272 4.346 2.12 8.798 2.544 13.25l.106.848v.53.53c0 .742 0 1.484-.106 2.226-.212 1.378-.53 2.756-1.06 3.922-.954 2.438-2.226 4.452-3.71 6.36-2.862 3.71-6.148 6.678-9.858 9.328l-2.968-3.392c2.65-3.074 5.194-6.36 6.996-9.752.954-1.696 1.696-3.392 2.12-4.982.212-.848.318-1.59.318-2.226 0-.318 0-.636 0-.954v-.212c0-.106 0-.106 0-.318l-.106-.742c-.742-4.028-1.59-7.844-2.862-11.66-.636-1.908-1.378-3.71-2.12-5.512-.424-.954-.848-1.802-1.272-2.65l-.636-1.272-.318-.636-.318-.424z" fill="#803e3c"/><path d="m343.122 178.928 3.816 8.056 3.074-6.89s-2.65-5.936-6.36-5.406z" fill="#7f3e3b"/><path d="m349.693 187.408 3.074-4.982-2.755-2.226-3.074 6.89z" fill="#7f3e3b"/><path d="m332.416 374.498c.848 0 1.696-.212 2.332-.318.106 0 .106-.106.106-.212s0-.212-.106-.212c-.318-.212-2.968-1.908-4.028-1.484-.212.106-.318.212-.424.636s0 .848.318 1.166c.53.318 1.166.424 1.802.424zm1.802-.636c-1.59.318-2.756.212-3.18-.106-.212-.212-.212-.424-.212-.742 0-.212.106-.212.212-.318.53-.318 2.014.53 3.18 1.166z" fill="#407bff"/><path d="m334.748 374.18s.106 0 0 0c.212-.106.212-.106.212-.212s0-2.65-.954-3.498c-.212-.212-.53-.318-.848-.318-.53.106-.636.424-.742.636-.212.954 1.378 2.862 2.332 3.392-.106 0 0 0 0 0zm-1.484-3.604c.212 0 .318.106.424.212.53.53.742 1.908.848 2.756-.848-.636-1.802-2.12-1.696-2.756 0-.106 0-.212.424-.212-.106 0-.106 0 0 0z" fill="#407bff"/><path d="m322.452 370.152c0-.106.106-.106 0-.212 0-.106-.106-.106-.212-.106-.424 0-4.24-.212-5.088.742v.106c-.106.212-.212.424-.106.636.106.424.424.636.742.742 1.272.318 3.392-1.06 4.664-1.908zm-4.982.636c.424-.53 2.544-.636 4.134-.636-1.696 1.166-2.968 1.696-3.71 1.484-.212-.106-.424-.212-.53-.53 0-.106 0-.212.106-.318z" fill="#3e8eae"/><path d="m322.452 370.152c.106-.106.106-.212 0-.212 0-.106-1.272-2.226-2.65-2.544-.424-.106-.848-.106-1.166.106-.53.318-.53.636-.424.848.318.954 2.968 1.802 4.134 1.802zm-3.816-2.12s.106-.106.212-.106c.318-.212.53-.212.848-.106.954.212 1.802 1.378 2.12 2.014-1.272-.106-3.18-.954-3.286-1.484 0-.106 0-.212.106-.318z" fill="#3e8eae"/><path d="m334.112 97.944c-1.06 5.3-3.392 16.748.318 20.246 0 0-1.484 5.3-11.236 5.3-10.812 0-5.194-5.3-5.194-5.3 5.83-1.378 5.724-5.724 4.664-9.858z" fill="#7f3e3b"/><path d="m316.198 85.542h.212c.212-.106.318-.318.212-.53-1.06-2.12-2.968-2.332-3.074-2.332-.212 0-.424.106-.424.318s.106.424.318.424c.106 0 1.59.212 2.438 1.908 0 .106.106.212.318.212z" fill="#263238"/><path d="m312.912 90.1s-1.59 2.862-3.074 4.24c.848.954 2.438.742 2.438.742z" fill="#630f0f"/><path d="m313.76 88.934c-.106.742-.53 1.272-.954 1.166s-.742-.636-.636-1.378.53-1.272.954-1.166.742.742.636 1.378z" fill="#263238"/><path d="m313.231 87.662-1.59-.742s.742 1.484 1.59.742z" fill="#263238"/><path d="m331.78 368.138-8.586 2.014-5.3-19.928 8.692-2.014z" fill="#7f3e3b"/><path d="m345.03 373.968h-8.798l.636-20.564h8.904z" fill="#7f3e3b"/><path d="m335.49 372.908h9.964c.318 0 .636.212.742.636l1.166 7.844c.106.848-.636 1.59-1.378 1.59-3.498-.106-5.194-.212-9.54-.212-2.65 0-6.678.318-10.388.318-3.604 0-3.922-3.71-2.332-4.028 6.996-1.484 8.056-3.604 10.388-5.512.318-.424.848-.636 1.378-.636z" fill="#263238"/><path d="m322.346 368.774 9.01-4.134c.318-.106.742 0 .848.212l4.346 6.678c.424.742.106 1.696-.636 2.014-3.18 1.378-4.77 1.908-8.798 3.71-2.438 1.166-7.42 3.71-10.812 5.3-3.286 1.484-5.088-1.696-3.816-2.65 5.724-4.24 7.314-7.314 8.586-10.07.424-.424.848-.848 1.272-1.06z" fill="#263238"/><path d="m317.894 350.224 2.862 10.706 8.48-2.438-2.65-10.282z" fill="#000" opacity=".2"/><path d="m345.772 353.404h-8.904l-.318 10.6h8.904z" fill="#000" opacity=".2"/><path d="m349.8 120.204c3.71.848 7.632 14.098 7.632 14.098l-10.388 11.13s-8.692-12.508-6.89-17.066c1.696-4.77 5.194-9.116 9.646-8.162z" fill="#263238"/><path d="m343.864 128.684c-1.908-1.696-3.074-1.166-4.028.106-.848 3.922 4.134 12.19 6.254 15.37.954-3.71 2.014-11.66-2.226-15.476z" fill="#000" opacity=".4"/><path d="m303.054 120.522s-4.24 1.484 4.24 53.636h36.04c-.636-14.628-.636-23.744 6.36-53.848 0 0-7.526-1.696-15.264-2.014-6.042-.318-11.024-.53-16.324 0-7.102.53-15.052 2.226-15.052 2.226z" fill="#263238"/><path d="m302.736 140.45c.212 2.544.53 5.406.954 8.586 2.968-2.65 5.406-10.176 4.452-14.628-2.014 1.59-3.922 3.922-5.406 6.042z" fill="#000" opacity=".4"/><path d="m306.552 132.606c-2.014 4.982-4.134 9.646-6.572 14.416-2.438 4.664-4.982 9.328-8.48 13.78l-.636.848-.318.424c-.106.106-.212.212-.424.424-.636.742-1.378 1.378-2.12 1.908-1.484 1.06-2.968 1.696-4.452 2.226-2.968.954-5.724 1.378-8.48 1.484-5.512.212-10.812-.318-16.112-1.378l.636-4.452c2.438 0 4.982 0 7.42-.212 2.438-.106 4.876-.424 7.314-.848 2.332-.424 4.664-.954 6.466-1.802.954-.424 1.696-.954 2.332-1.378.318-.212.53-.53.742-.742 0 0 .106-.212.212-.318l.212-.318.53-.742c2.65-3.816 4.876-8.374 7.102-12.826 2.12-4.558 4.24-9.222 6.148-13.78z" fill="#803e3c"/><path d="m303.054 120.522c-4.452 1.06-9.858 13.144-9.858 13.144l9.116 13.462s12.19-15.37 10.706-20.034c-1.378-4.876-4.558-7.95-9.964-6.572z" fill="#263238"/><path d="m262.138 162.816-7.632-3.498-.742 7.632s6.36 1.908 9.54 0z" fill="#7f3e3b"/><path d="m249.948 158.47-.742 5.83 4.558 2.544.742-7.632z" fill="#7f3e3b"/><path d="m337.928 89.464c-1.59 8.692-2.12 12.402-7.102 16.324-7.42 5.936-17.702 2.014-18.762-6.89-.954-8.056 1.908-20.882 10.812-23.32s16.642 5.194 15.052 13.886z" fill="#7f3e3b"/><path d="m318.955 91.266c-.53 4.452-.636 15.9 9.01 16.218 11.872.424 15.476-9.752 14.416-13.78 6.148-5.088 7.102-13.674.106-20.352s-22.26-2.968-26.5 3.498c-5.406 8.162 2.968 14.416 2.968 14.416z" fill="#263238"/><path d="m330.826 76.002c-.53-4.664-.106-7.844 4.24-7.844s10.282 1.59 12.508 6.042 2.332 11.448-3.71 10.706c-6.148-.636-12.296-3.286-13.038-8.904z" fill="#3e8eae"/><path d="m337.61 74.942c-1.06-5.512 3.922-21.2 16.006-22.26 5.618-.424 8.162 5.512 5.3 6.572 5.3-.106 8.692 6.89 3.71 7.95 3.922 2.544 2.968 7.632-2.65 10.176-4.134 1.908-20.988 5.194-22.366-2.438z" fill="#263238"/><path d="m350.436 80.878c-3.922 0-7.95-.53-10.494-2.226-1.484-1.06-2.332-2.332-2.544-4.028 0-.106.106-.318.212-.318s.318.106.318.212c.106 1.484.848 2.756 2.226 3.604 4.77 3.18 15.901 2.12 19.399 1.06 2.968-.954 4.982-2.862 5.406-5.088.318-1.59-.318-3.18-1.802-4.24-.106-.106-.106-.212 0-.424.106-.106.212-.106.424 0 1.59 1.272 2.332 2.968 2.014 4.77-.424 2.332-2.544 4.452-5.724 5.512-1.802.636-5.512 1.166-9.435 1.166z" fill="#263238"/><path d="m316.198 90.1c-1.06 1.484-1.378 3.286-1.166 4.77.318 2.226 2.544 2.332 4.134.954 1.378-1.272 2.968-4.028 1.802-5.83s-3.498-1.59-4.77.106z" fill="#7f3e3b"/><path d="m316.834 174.052s5.194 60.95 10.494 95.294c4.346 27.772 7.738 92.538 7.738 92.538h12.084s4.346-62.858 2.12-90.312c-5.512-69.43 6.784-75.048-5.936-97.52z" fill="#3e8eae"/><path d="m332.098 197.054c-4.876 4.982-8.586 10.918-11.448 17.278 1.378 13.674 3.074 28.938 4.876 42.188 5.512-13.886 10.176-35.298 6.572-59.466z" fill="#000" opacity=".4"/><path d="m308.354 173.628s-11.13 66.568-12.932 96.566c4.346 27.772 22.366 86.39 22.366 86.39l11.024-4.028s-6.042-63.918-12.72-81.408c14.946-50.244 25.864-62.858 22.684-97.096-7.632 0-30.422-.424-30.422-.424z" fill="#3e8eae"/><path d="m316.304 359.552 14.84-4.028-.848-5.936-15.9 4.24z" fill="#263238"/><path d="m333.37 362.202h15.476l.742-5.406-16.324-.636z" fill="#263238"/><path d="m343.863 171.932 1.59 3.18c.106.212-.212.53-.636.53h-37.842c-.318 0-.636-.212-.636-.318l-.318-3.18c0-.212.212-.424.636-.424h36.465c.424 0 .741.106.741.212z" fill="#3e8eae"/><path d="m343.863 171.932 1.59 3.18c.106.212-.212.53-.636.53h-37.842c-.318 0-.636-.212-.636-.318l-.318-3.18c0-.212.212-.424.636-.424h36.465c.424 0 .741.106.741.212z" fill="#314147" opacity=".5"/><path d="m338.989 176.066h.954c.212 0 .318-.106.318-.212l-.424-4.24c0-.106-.212-.212-.424-.212h-.954c-.212 0-.318.106-.318.212l.424 4.24c.106.106.212.212.424.212z" fill="#407bff"/><path d="m325.844 145.114c-.212 0-.424-.212-.53-.424-3.498-12.826-10.6-23.32-14.098-24.91-.424-.212-.742-.212-.848-.106-.318.106-.53 0-.742-.318-.106-.318 0-.53.318-.742.53-.212 1.06-.212 1.802.106 3.71 1.696 10.918 12.084 14.522 25.228 2.65 0 6.572-.318 7.526-.424 1.166-1.484 10.07-12.508 6.784-24.698-.106-.318.106-.53.424-.636s.53.106.636.424c3.71 13.568-6.996 25.758-7.102 25.864s-.212.212-.318.212-5.406.424-8.374.424z" fill="#3e8eae"/><path d="m343.44 152.64c-5.83-10.812-8.162-11.554-9.222-15.052 0 0 .954-2.65 3.286-5.3-.742-.212-2.226-.53-3.18-.636.106-.424.212-.954.318-1.378-.742-.212-2.438 0-3.18.106v-1.06s-2.968-.636-4.134-.212c.106.53.212.954.318 1.484-1.06.212-2.65.53-3.498.742 2.226 2.544 3.074 5.194 3.286 5.936-3.074 5.3-15.264 39.75 4.452 42.4 19.822 2.438 17.278-16.218 11.554-27.03z" fill="#3e8eae"/><path d="m343.44 152.64c-5.83-10.812-8.162-11.554-9.222-15.052 0 0 .954-2.65 3.286-5.3-.742-.212-2.226-.53-3.18-.636.106-.424.212-.954.318-1.378-.742-.212-2.438 0-3.18.106v-1.06s-2.968-.636-4.134-.212c.106.53.212.954.318 1.484-1.06.212-2.65.53-3.498.742 2.226 2.544 3.074 5.194 3.286 5.936-3.074 5.3-15.264 39.75 4.452 42.4 19.822 2.438 17.278-16.218 11.554-27.03z" fill="#456a74" opacity=".4"/><path d="m326.799 136.21c-.106.212-.106 1.272-.106 1.696s1.06.636 2.226.742 6.148.318 5.936-.212c-.106-.53.212-1.272.212-1.802 0-.424-2.014-.53-3.604-.424s-4.346-.636-4.664 0z" fill="#456a74"/><path d="m315.244 176.066h.954c.212 0 .318-.106.318-.212l-.424-4.24c0-.106-.212-.212-.424-.212h-.848c-.212 0-.318.106-.318.212l.424 4.24c0 .106.212.212.318.212z" fill="#3e8eae"/></g></svg>