<svg width="24" height="24" viewBox="0 0 24 24" fill="none" xmlns="http://www.w3.org/2000/svg">
<path d="M12.0469 14.3156C10.65 14.3156 9.24844 14.3203 7.85156 14.3109C7.63125 14.3109 7.55156 14.3671 7.55625 14.5968C7.57031 15.1921 7.57031 15.7828 7.55625 16.3781C7.55156 16.5796 7.6125 16.6781 7.79531 16.7671C8.67188 17.1937 9.15469 18.0937 9.05156 19.0828C8.95781 19.9781 8.25469 20.7796 7.35938 21.0093C6.23438 21.2953 5.07188 20.6906 4.66406 19.6078C4.25625 18.525 4.725 17.2968 5.77031 16.7812C5.97187 16.6828 6.0375 16.5703 6.03281 16.3546C6.01875 15.7593 6.01875 15.1687 6.03281 14.5734C6.0375 14.3625 5.9625 14.3109 5.76094 14.3109C4.87969 14.3203 3.99375 14.3156 3.1125 14.3156C2.57344 14.3156 2.27812 14.0156 2.27812 13.4718C2.27812 12.8718 2.27812 12.2671 2.27812 11.6671C2.27812 11.3156 2.27813 11.3156 1.91719 11.3156C1.62188 11.3156 1.32187 11.3109 1.02656 11.3156C0.853125 11.3203 0.773438 11.2734 0.773438 11.0812C0.778125 8.47026 0.778125 5.86401 0.773438 3.25308C0.773438 3.07495 0.84375 3.02808 1.00781 3.02808C2.23594 3.03276 3.45937 3.03276 4.6875 3.02808C4.84688 3.02808 4.95 3.10308 5.04844 3.2062C6.17344 4.33589 7.30313 5.4562 8.42813 6.59058C8.56406 6.7312 8.70469 6.78745 8.90156 6.78745C13.0875 6.78276 17.2781 6.78276 21.4641 6.78276C21.7734 6.78276 21.7781 6.78276 21.7781 6.47808C21.7781 5.91558 21.7875 5.35308 21.7734 4.79058C21.7687 4.57495 21.8484 4.52339 22.0453 4.52808C22.3641 4.54214 22.6875 4.53276 23.0062 4.53276C23.3062 4.53276 23.3109 4.53276 23.3109 4.85151C23.3109 6.15464 23.3109 7.46245 23.3109 8.76558C23.3109 9.52495 23.3062 10.2796 23.3156 11.039C23.3203 11.25 23.2547 11.3296 23.0391 11.3203C22.7203 11.3062 22.3969 11.325 22.0781 11.3109C21.8766 11.3015 21.8063 11.3625 21.8063 11.5734C21.8203 12.2062 21.8109 12.839 21.8109 13.4718C21.8109 14.0203 21.5203 14.3156 20.9766 14.3156C20.0953 14.3156 19.2094 14.3203 18.3281 14.3109C18.1266 14.3109 18.0516 14.3625 18.0563 14.5734C18.0703 15.1734 18.0703 15.7781 18.0563 16.3781C18.0516 16.5796 18.1125 16.6828 18.2953 16.7671C19.1812 17.1937 19.6734 18.1359 19.5469 19.1062C19.425 20.039 18.7219 20.8078 17.7891 21.0187C16.6781 21.2718 15.5391 20.6531 15.15 19.5796C14.7563 18.4968 15.2297 17.2828 16.2656 16.7765C16.4672 16.6781 16.5328 16.5656 16.5281 16.35C16.5141 15.7546 16.5141 15.164 16.5281 14.5687C16.5328 14.3578 16.4625 14.3062 16.2609 14.3062C14.8594 14.3156 13.4531 14.3156 12.0469 14.3156ZM12.0469 11.3156C10.9359 11.3156 9.82969 11.3156 8.71875 11.3156C7.17188 11.3156 5.625 11.3203 4.07812 11.3109C3.87656 11.3109 3.79688 11.3625 3.81094 11.5734C3.825 11.8687 3.81563 12.1687 3.81563 12.464C3.81563 12.7828 3.81563 12.7828 4.13906 12.7828C7.3875 12.7828 10.6406 12.7828 13.8891 12.7828C15.9281 12.7828 17.9672 12.7781 20.0062 12.7875C20.2172 12.7875 20.3016 12.7359 20.2875 12.5109C20.2687 12.2156 20.2828 11.9156 20.2828 11.6203C20.2828 11.3156 20.2828 11.3156 19.9688 11.3156C17.3297 11.3156 14.6859 11.3156 12.0469 11.3156ZM15.4219 9.77808C17.4516 9.77808 19.4859 9.77339 21.5156 9.78276C21.7172 9.78276 21.7969 9.7312 21.7875 9.52026C21.7734 9.21558 21.7687 8.91089 21.7875 8.6062C21.8016 8.36245 21.7172 8.3062 21.4828 8.3062C19.8281 8.31558 18.1687 8.31089 16.5141 8.31089C14.1234 8.31089 11.7328 8.31558 9.34219 8.3062C9.13125 8.3062 9.04688 8.35776 9.06094 8.57808C9.07969 8.87339 9.06562 9.17339 9.06562 9.4687C9.06562 9.77339 9.06563 9.77339 9.375 9.77339C11.3906 9.78276 13.4062 9.77808 15.4219 9.77808ZM3.77812 7.19526C3.77812 6.39839 3.77344 5.60151 3.78281 4.80464C3.78281 4.62183 3.73125 4.55151 3.54375 4.56089C3.20625 4.57495 2.87344 4.57026 2.53594 4.56089C2.38125 4.5562 2.31094 4.59839 2.31094 4.77183C2.31562 6.37495 2.31562 7.97339 2.31094 9.57651C2.31094 9.72651 2.35781 9.78745 2.5125 9.78276C2.85469 9.77339 3.20156 9.7687 3.54375 9.78276C3.73594 9.79214 3.78281 9.71714 3.78281 9.53901C3.77344 8.7562 3.77812 7.97339 3.77812 7.19526ZM5.33438 5.73745C5.325 5.76089 5.31563 5.77964 5.31563 5.79839C5.31563 7.06401 5.31563 8.32495 5.31094 9.59058C5.31094 9.75933 5.39531 9.77808 5.53125 9.77808C6.12187 9.77339 6.71719 9.7687 7.30781 9.77808C7.49062 9.78276 7.53281 9.70308 7.52813 9.53901C7.51875 9.0562 7.51875 8.57339 7.52813 8.08589C7.53281 7.9312 7.48125 7.82339 7.37344 7.71558C6.74531 7.09683 6.12656 6.4687 5.49844 5.84995C5.45625 5.81245 5.42344 5.74214 5.33438 5.73745ZM18.0234 18.8062C18.0234 18.4171 17.6719 18.0656 17.2922 18.0703C16.9125 18.075 16.575 18.4078 16.5703 18.7921C16.5609 19.1718 16.9125 19.5234 17.3016 19.5281C17.6672 19.5281 18.0281 19.1718 18.0234 18.8062ZM6.7875 18.0656C6.40313 18.075 6.05156 18.4406 6.07031 18.8156C6.08906 19.1953 6.43594 19.5281 6.81094 19.5187C7.20469 19.5093 7.54219 19.1578 7.52344 18.7734C7.50469 18.3937 7.15313 18.0562 6.7875 18.0656Z" fill="white"/>
</svg>
