<svg width="24" height="24" viewBox="0 0 24 24" fill="none" xmlns="http://www.w3.org/2000/svg">
<g clip-path="url(#clip0_109_1823)">
<path d="M23.3002 13.3L22.7002 16.1H19.5002C19.0002 17.1 18.3002 18 17.4002 18.7L18.2002 21.8L15.6002 23L13.7002 20.5C13.2002 20.6 12.6002 20.7 12.0002 20.7C11.4002 20.7 10.9002 20.6 10.4002 20.5L8.4002 23L5.8002 21.7L6.5002 18.6C5.7002 17.9 5.0002 17 4.5002 16H1.3002L0.700195 13.2L3.6002 12C3.6002 10.9 3.9002 9.8 4.3002 8.8L2.3002 6.3L4.1002 4L6.9002 5.4C7.8002 4.7 8.8002 4.3 9.9002 4L10.6002 1H13.5002L14.2002 4.1C15.3002 4.4 16.3002 4.9 17.2002 5.5L20.0002 4.1L21.8002 6.4L19.8002 8.8C20.2002 9.8 20.5002 10.9 20.5002 12L23.3002 13.3Z" stroke="white" stroke-width="2" stroke-miterlimit="10" stroke-linecap="round" stroke-linejoin="round"/>
<path d="M12 15.7C13.933 15.7 15.5 14.1329 15.5 12.2C15.5 10.267 13.933 8.69995 12 8.69995C10.067 8.69995 8.5 10.267 8.5 12.2C8.5 14.1329 10.067 15.7 12 15.7Z" stroke="white" stroke-width="2" stroke-miterlimit="10" stroke-linecap="round" stroke-linejoin="round"/>
</g>
<defs>
<clipPath id="clip0_109_1823">
<rect width="24" height="24" fill="white"/>
</clipPath>
</defs>
</svg>
