<svg width="24" height="24" viewBox="0 0 24 24" fill="none" xmlns="http://www.w3.org/2000/svg">
<path d="M12.0001 0.225098C5.49385 0.225098 0.225098 5.49385 0.225098 12.0001C0.225098 18.5063 5.5126 23.7751 12.0001 23.7751C18.4876 23.7751 23.7751 18.4876 23.7751 12.0001C23.7751 5.5126 18.5063 0.225098 12.0001 0.225098ZM12.0001 1.6501C14.5501 1.6501 16.8751 2.56885 18.6751 4.10635L15.8251 6.9376C14.7563 6.13135 13.4251 5.64385 12.0001 5.64385C10.5751 5.64385 9.2251 6.13135 8.1751 6.9376L5.3251 4.10635C7.1251 2.5876 9.4501 1.6501 12.0001 1.6501ZM16.9126 12.0001C16.9126 14.7001 14.7188 16.9126 12.0001 16.9126C9.28135 16.9126 7.0876 14.7001 7.0876 12.0001C7.0876 9.3001 9.3001 7.0876 12.0001 7.0876C14.7001 7.0876 16.9126 9.3001 16.9126 12.0001ZM1.6501 12.0001C1.6501 9.35635 2.64385 6.9376 4.29385 5.11885L7.1251 7.9501C6.20635 9.05635 5.6626 10.4626 5.6626 12.0001C5.6626 13.4438 6.1501 14.7751 6.95635 15.8251L4.10635 18.6751C2.5876 16.8751 1.6501 14.5501 1.6501 12.0001ZM12.0001 22.3501C9.35635 22.3501 6.9376 21.3563 5.11885 19.7063L7.9501 16.8751C9.05635 17.7938 10.4626 18.3376 12.0001 18.3376C13.5376 18.3376 14.9626 17.7938 16.0501 16.8751L18.8813 19.7063C17.0626 21.3376 14.6438 22.3501 12.0001 22.3501ZM19.8938 18.6751L17.0626 15.8251C17.8688 14.7563 18.3563 13.4251 18.3563 12.0001C18.3563 10.4626 17.8126 9.0376 16.8938 7.9501L19.7251 5.11885C21.3563 6.95635 22.3688 9.35635 22.3688 12.0001C22.3501 14.5501 21.4126 16.8751 19.8938 18.6751Z" fill="white"/>
</svg>
