<svg width="24" height="24" viewBox="0 0 24 24" fill="none" xmlns="http://www.w3.org/2000/svg">
<path d="M23.4385 12.2245C23.4385 11.2413 23.3587 10.5238 23.186 9.77966H11.9581V14.2176H18.5486C18.4158 15.3205 17.6983 16.9815 16.1037 18.0976L16.0814 18.2462L19.6315 20.9964L19.8774 21.0209C22.1363 18.9347 23.4385 15.8653 23.4385 12.2245Z" fill="#4285F4"/>
<path d="M11.958 23.9176C15.1869 23.9176 17.8975 22.8545 19.8774 21.0209L16.1037 18.0976C15.0939 18.8018 13.7385 19.2934 11.958 19.2934C8.79564 19.2934 6.11157 17.2074 5.15478 14.324L5.01454 14.3359L1.32312 17.1927L1.27484 17.3269C3.24138 21.2334 7.2808 23.9176 11.958 23.9176Z" fill="#34A853"/>
<path d="M5.15551 14.324C4.90305 13.5799 4.75695 12.7826 4.75695 11.9588C4.75695 11.1349 4.90305 10.3377 5.14223 9.5936L5.13554 9.43513L1.39786 6.53241L1.27557 6.59058C0.465069 8.21168 0 10.0321 0 11.9588C0 13.8855 0.465069 15.7058 1.27557 17.3269L5.15551 14.324Z" fill="#FBBC05"/>
<path d="M11.958 4.62403C14.2036 4.62403 15.7184 5.59402 16.5821 6.40461L19.9571 3.10928C17.8843 1.1826 15.1869 0 11.958 0C7.2808 0 3.24138 2.68406 1.27484 6.59056L5.1415 9.59359C6.11157 6.7102 8.79564 4.62403 11.958 4.62403Z" fill="#EB4335"/>
</svg>
