<svg width="24" height="24" viewBox="0 0 24 24" fill="none" xmlns="http://www.w3.org/2000/svg">
<path d="M22.6753 24C23.4068 24 23.9999 23.4069 23.9999 22.6754V1.32459C23.9999 0.592966 23.4068 0 22.6753 0H1.32459C0.592873 0 0 0.592966 0 1.32459V22.6754C0 23.4069 0.592873 24 1.32459 24H22.6753Z" fill="#395185"/>
<path d="M16.5617 24V14.7059H19.6814L20.1485 11.0839H16.5617V8.7713C16.5617 7.72261 16.853 7.00796 18.3569 7.00796L20.2749 7.00712V3.7676C19.943 3.72344 18.8045 3.62482 17.48 3.62482C14.7146 3.62482 12.8214 5.31278 12.8214 8.4127V11.0839H9.69373V14.7059H12.8214V24H16.5617Z" fill="white"/>
</svg>
