<svg fill="none" height="46" viewBox="0 0 176 46" width="176" xmlns="http://www.w3.org/2000/svg"><g clip-rule="evenodd" fill="#003781" fill-rule="evenodd"><path d="m71.7691 29.8851v-4.1936c-1.8145.3024-2.8227.5646-3.8306.988-1.4113.5444-1.8145 1.2095-1.8145 2.9434 0 1.5724.6048 2.1573 1.8145 2.1573 1.2098 0 2.6208-.6856 3.8306-1.8951zm-8.2659-9.4554-.6047.242-1.4113-3.8709c1.8145-.9476 2.6208-1.2297 4.2337-1.6127 1.6129-.3832 3.2255-.5848 5.04-.5848 5.2419 0 7.0564 1.8145 7.0564 7.1771v10.3021c0 1.0885.6047 1.6329 1.8141 1.6329h.2016v2.1572h-6.0479c-1.2097 0-1.8145-.6249-1.8145-1.9355v-.6451c-1.2097 1.109-1.6129 1.351-2.6208 1.8145-1.0081.6451-2.4192.9677-3.8305.9677-3.629 0-5.2419-1.895-5.2419-5.8668 0-3.1652 1.2098-5.1812 3.8306-6.2296.8066-.3425 1.6129-.6047 2.4192-.8063 1.6129-.3428 2.4192-.5039 5.2419-.9677v-.5242c0-1.8546-.6051-2.52-2.6208-2.52-.4035 0-1.2098.0806-1.8145.1612-1.2098.2218-2.2177.4638-3.8306 1.1089zm-6.4467-10.1023c0-1.85492-1.4114-2.94367-3.629-2.94367-2.4192 0-3.6287 1.08875-3.6287 2.94367 0 1.8951 1.2095 3.0037 3.6287 3.0037 2.2176 0 3.629-1.1086 3.629-3.0037zm-.2016 25.5431v-18.9104c0-1.3105-.8063-2.0767-2.0161-2.0767h-6.2497v2.2783h.4031c1.2098 0 1.6129.5039 1.6129 1.653v17.0558zm-40.9283-11.2824h-6.45131l3.42741-11.1486zm-9.47525 11.2698 2.01606-6.7941h8.26549l2.0161 6.7941h6.8548l-7.2579-25.7851c-.4032-1.69353-1.2095-2.2379-3.024-2.2379h-10.08031v2.3184h.8066c1.20946 0 1.81419.383 1.81419 1.3106 0 .5845 0 .9677-.60473 2.3585l-7.25765 22.0355zm27.81965 0v-25.9665c0-1.35099-.8066-2.0565-2.2176-2.0565h-6.2498v2.3184h.4031c1.2095 0 1.8145.504 1.8145 1.5927v24.1119zm11.2905-25.9665v25.9665h-6.2498v-24.1119c0-1.0887-.6047-1.5927-1.8145-1.5927h-.4031v-2.3184h6.2497c1.4111 0 2.2177.70551 2.2177 2.0565zm43.7468 25.9623v-14.2332c1.4111-1.3105 2.4193-1.8144 3.8306-1.8144 1.411 0 1.8142.6047 1.8142 2.7418v13.3058h6.2499v-14.314c0-2.9434-.403-4.2135-1.2096-5.3222-1.0082-1.0887-2.2177-1.5927-4.0321-1.5927-2.4193 0-4.2337.8869-7.0561 3.3263v-1.1289c0-1.3105-.6051-1.9557-1.8145-1.9557h-6.0482v2.2783h.2016c1.2097 0 1.8145.504 1.8145 1.6531v17.0558zm21.9807-4.0134h9.274v4.0119h-16.128v-4.3547l9.072-12.6607h-4.839c-1.209 0-1.814.4637-1.814 1.6129v.4234h-2.218v-3.8104c0-1.5523.605-2.1975 2.218-2.1975h13.306v4.3143z"/><path d="m156.243 34.696v-23.749c0-1.91528-.807-2.54028-2.621-2.54028h-5.443v2.62098h.604c1.008 0 1.412.3829 1.412 1.5522v22.1161zm3.225 0h5.847v-17.9226c0-1.8145-.806-2.5403-2.621-2.5403h-3.226zm-12.499 0v-20.4629h-3.226c-1.814 0-2.621.7258-2.621 2.5403v17.9226zm25.2-11.9349c0 11.1084-8.064 19.2128-18.95 19.2128-10.887 0-18.951-8.1044-18.951-19.2128s8.064-19.21299 18.951-19.21299c10.886 0 18.95 8.10459 18.95 19.21299zm3.831 0c0-13.00351-9.677-22.76123733-22.781-22.76123733-12.903 0-22.781 9.75772733-22.781 22.76123733 0 13.0438 9.878 22.8014 22.781 22.8014 13.104 0 22.781-9.7576 22.781-22.8014z"/></g></svg>