<svg fill="none" height="52" viewBox="0 0 156 52" width="156" xmlns="http://www.w3.org/2000/svg"><path d="m66.7591 27.0236c0 7.3881-5.7797 12.8322-12.8727 12.8322s-12.8727-5.4441-12.8727-12.8322c0-7.4401 5.7797-12.8322 12.8727-12.8322s12.8727 5.3921 12.8727 12.8322zm-5.6351 0c0-4.6168-3.3498-7.7757-7.2376-7.7757-3.8879 0-7.2377 3.1589-7.2377 7.7757 0 4.5706 3.3498 7.7757 7.2377 7.7757 3.8878 0 7.2376-3.2109 7.2376-7.7757z" fill="#ea4335"/><path d="m94.5296 27.0236c0 7.3881-5.7797 12.8322-12.8727 12.8322s-12.8727-5.4441-12.8727-12.8322c0-7.4343 5.7797-12.8322 12.8727-12.8322s12.8727 5.3921 12.8727 12.8322zm-5.6351 0c0-4.6168-3.3498-7.7757-7.2376-7.7757-3.8879 0-7.2376 3.1589-7.2376 7.7757 0 4.5706 3.3497 7.7757 7.2376 7.7757 3.8878 0 7.2376-3.2109 7.2376-7.7757z" fill="#fbbc05"/><path d="m121.142 14.9667v23.0378c0 9.4766-5.589 13.3471-12.196 13.3471-6.219 0-9.9625-4.1598-11.3742-7.5616l4.9062-2.0423c.874 2.0886 3.014 4.5532 6.462 4.5532 4.229 0 6.85-2.6093 6.85-7.5212v-1.8455h-.196c-1.262 1.5563-3.692 2.9159-6.758 2.9159-6.416 0-12.294-5.5888-12.294-12.7802 0-7.2434 5.878-12.8785 12.294-12.8785 3.061 0 5.491 1.3596 6.758 2.8696h.196v-2.0886h5.352zm-4.952 12.1032c0-4.5185-3.015-7.822-6.85-7.822-3.888 0-7.146 3.3035-7.146 7.822 0 4.4722 3.258 7.7294 7.146 7.7294 3.835 0 6.85-3.2572 6.85-7.7294z" fill="#4285f4"/><path d="m129.965 1.46484v37.60566h-5.496v-37.60566z" fill="#34a853"/><path d="m151.384 31.247 4.373 2.9158c-1.411 2.0886-4.813 5.6872-10.691 5.6872-7.29 0-12.734-5.6351-12.734-12.8322 0-7.6311 5.49-12.8323 12.103-12.8323 6.659 0 9.917 5.2996 10.981 8.1634l.584 1.4579-17.154 7.1046c1.314 2.5745 3.356 3.8878 6.22 3.8878 2.869 0 4.86-1.4116 6.318-3.5522zm-13.463-4.6169 11.467-4.7614c-.631-1.6026-2.529-2.7192-4.762-2.7192-2.864 0-6.85 2.5283-6.705 7.4806z" fill="#ea4335"/><path d="m20.2087 23.6858v-5.4441h18.3458c.1794.9488.2719 2.0712.2719 3.2861 0 4.0846-1.1166 9.1353-4.7151 12.7339-3.5003 3.6448-7.9725 5.5888-13.8968 5.5888-10.98086 0-20.2145-8.9444-20.2145-19.9253 0-10.98083 9.23364-19.9252 20.2145-19.9252 6.0748 0 10.4023 2.38362 13.6538 5.49043l-3.8416 3.84157c-2.3316-2.18692-5.4904-3.88785-9.818-3.88785-8.0187 0-14.29014 6.46235-14.29014 14.48105s6.27144 14.4811 14.29014 14.4811c5.2012 0 8.1633-2.0886 10.061-3.9862 1.5389-1.5389 2.5514-3.7374 2.9506-6.7401z" fill="#4285f4"/></svg>