<svg fill="none" height="36" viewBox="0 0 160 36" width="160" xmlns="http://www.w3.org/2000/svg"><path clip-rule="evenodd" d="m58.2906 25.523c0-5.3999-2.6769-8.3537-12.3692-9.9231v3.8309c6.6923 1.1538 8.4 2.9076 8.3539 6.2307-.0462 3.1847-2.3539 6.4153-9.6924 6.4153-6.1846 0-9.7384-3.2769-10.4769-7.8461h-4.4769c.5538 5.6308 5.2615 11.7693 14.8154 11.7693 9.7384 0 13.8461-5.4462 13.8461-10.477zm-27.6-15.73835c0 6.87685 6.2307 8.90755 11.4 9.36915l-.0001-3.877c-4.2461-.5538-7.3846-2.0768-7.3846-5.4461 0-3.32318 3.2769-5.90769 8.6769-5.90769 4.8462 0 8.077 2.40001 8.8616 6.13849h4.6154c-.4153-4.01531-4.2922-10.0615-13.4769-10.0615-6.9231 0-12.6923 3.78452-12.6923 9.78465zm-30.6906-9.090557v4.015277h25.2923v-4.015277zm25.2923 15.323107h-25.2923v3.9692h25.2923zm0 15.2768h-25.2923v4.0155h25.2923zm41.9081-30.599907v34.615307h-4.0154v-34.615307zm3.8308 4.015277v-4.015277h6.7845c6.5077 0 10.6615 4.061497 10.6615 9.646107 0 5.5847-4.3845 9.6462-10.6615 9.6462h-6.7845v-4.0155h6.7845c4.2924 0 6.6462-2.3076 6.6462-5.6307 0-3.32313-2.3538-5.63087-6.6462-5.63087zm26.305-4.015277h-4.0154v34.615307h4.0154zm22.2928 9.646107c0-5.58461-4.154-9.646107-10.662-9.646107h-7.8v4.015237h7.661c4.293 0 6.554 2.53852 6.554 5.63087 0 3.1384-2.261 5.6307-6.554 5.6307h-7.661v4.0155h7.8c6.277 0 10.662-4.0615 10.662-9.6462zm-11.862 13.1076 7.846 11.8616h5.031l-8.077-11.8616zm17.631-22.753707h4.016v34.615307h-4.016zm8.305 0v4.015277h26.216v-4.015277zm15.139 34.615307v-26.86158h-4.016v26.86158z" fill="#191b1c" fill-rule="evenodd"/></svg>