<svg fill="none" height="35" viewBox="0 0 176 35" width="176" xmlns="http://www.w3.org/2000/svg" xmlns:xlink="http://www.w3.org/1999/xlink"><radialGradient id="a" cx="0" cy="0" gradientTransform="matrix(18.48003839 14.08000464 -13.67607728 17.9498828 18.92 20.7644)" gradientUnits="userSpaceOnUse" r="1"><stop offset="0" stop-color="#ffb900"/><stop offset=".74709" stop-color="#fa5c86"/><stop offset="1" stop-color="#f95353"/></radialGradient><g clip-rule="evenodd" fill-rule="evenodd"><path d="m26.9808 8.1721c0 4.5138-3.6614 8.173-8.1782 8.173-4.517 0-8.1784-3.6592-8.1784-8.173 0-4.51285 3.6614-8.1721 8.1784-8.1721 4.5168 0 8.1782 3.65925 8.1782 8.1721zm-18.80238 10.2163c-4.51678 0-8.17842 3.6582-8.17842 8.1719 0 4.5134 3.66164 8.1723 8.17842 8.1723 4.51698 0 8.17878-3.6589 8.17878-8.1723 0-4.5137-3.6618-8.1719-8.17878-8.1719zm21.24818-.0007c-4.5168 0-8.1784 3.6589-8.1784 8.1726 0 4.5134 3.6616 8.1723 8.1784 8.1723s8.1784-3.6589 8.1784-8.1723c0-4.5137-3.6616-8.1726-8.1784-8.1726z" fill="url(#a)"/><g fill="#273347"><path d="m66.3827 26.4639c.1066 1.2124 1.0771 2.7556 2.7584 2.7556h.9837c.3814 0 .6939-.3123.6939-.6937v-21.61904h-.0042c-.02-.36422-.3211-.65592-.6897-.65592h-3.0482c-.3687 0-.6698.2917-.6902.65592h-.0037v1.75667c-1.8677-2.30041-4.8122-3.25523-7.7651-3.25523-6.7118 0-12.1528 5.4411-12.1528 12.1534 0 6.7126 5.441 12.1539 12.1528 12.1539v.0005c2.9529 0 6.1708-1.1456 7.7647-3.2548zm-7.7531-1.002c-4.2687 0-7.7293-3.5368-7.7293-7.9003 0-4.3628 3.4606-7.89981 7.7293-7.89981 4.2685 0 7.7287 3.53701 7.7287 7.89981 0 4.3635-3.4602 7.9003-7.7287 7.9003z"/><path d="m116.046 26.4639c.106 1.2124 1.077 2.7556 2.758 2.7556h.984c.381 0 .693-.3123.693-.6937v-21.61904h-.003c-.02-.36422-.322-.65592-.69-.65592h-3.048c-.369 0-.67.2917-.691.65592h-.003v1.75667c-1.868-2.30041-4.813-3.25523-7.765-3.25523-6.712 0-12.1531 5.4411-12.1531 12.1534 0 6.7126 5.4411 12.1539 12.1531 12.1539v.0005c2.952 0 6.171-1.1456 7.764-3.2548zm-7.754-1.002c-4.268 0-7.729-3.5368-7.729-7.9003 0-4.3628 3.461-7.89981 7.729-7.89981 4.269 0 7.729 3.53701 7.729 7.89981 0 4.3635-3.46 7.9003-7.729 7.9003z"/><path d="m171.564 26.4639c.107 1.2124 1.077 2.7556 2.759 2.7556h.983c.382 0 .695-.3123.695-.6937v-21.61904h-.005c-.02-.36422-.321-.65592-.69-.65592h-3.048c-.368 0-.67.2917-.69.65592h-.004v1.75667c-1.867-2.30041-4.812-3.25523-7.765-3.25523-6.712 0-12.153 5.4411-12.153 12.1534 0 6.7126 5.441 12.1539 12.153 12.1539v.0005c2.953 0 6.171-1.1456 7.765-3.2548zm-7.753-1.002c-4.268 0-7.729-3.5368-7.729-7.9003 0-4.3628 3.461-7.89981 7.729-7.89981 4.269 0 7.729 3.53701 7.729 7.89981 0 4.3635-3.46 7.9003-7.729 7.9003z"/><path d="m147.792 27.208-.001-11.1869c0-6.30602-3.978-10.56016-10.322-10.56016-3.028 0-5.511 1.75114-6.388 3.25541-.189-1.17622-.814-2.41259-2.75-2.41259h-.987c-.382 0-.694.31255-.694.69392v19.52102.003 2.0969h.004c.02.3636.322.6557.69.6557h3.049c.046 0 .092-.0055.136-.0142.02-.0039.039-.0118.059-.0174.022-.007.046-.0123.068-.0212.027-.0112.051-.0264.077-.0404.012-.0075.025-.0129.037-.0208.03-.0196.058-.0432.085-.0674.004-.0044.01-.0073.014-.0114.031-.0293.058-.0616.083-.0952v-.0006c.076-.1048.123-.231.13-.3671h.004v-12.7709c0-3.3868 2.746-6.13262 6.133-6.13262s6.133 2.74582 6.133 6.13262l.002 10.6747.001-.0037c0 .0094.002.0192.002.0293v2.0706h.004c.02.3636.321.6557.689.6557h3.049c.047 0 .092-.0055.136-.0142.018-.0033.035-.0105.053-.0155.025-.0072.05-.0135.074-.0231.025-.0103.048-.0247.072-.038.014-.0081.029-.014.043-.0232.028-.0185.054-.0408.079-.0629.006-.0059.014-.0104.02-.0165.029-.0278.054-.0579.078-.0894.002-.0024.003-.0043.005-.0067.075-.1039.121-.2291.129-.3644 0-.0009.001-.0018.001-.0018h.004v-1.4102z"/><path d="m78.1014 23.368c2.035 1.4098 4.2562 2.0945 6.3908 2.0945 2.0335 0 4.1358-1.0543 4.1358-2.8892 0-2.4499-4.581-2.8311-7.4591-3.8093-2.8787-.9783-5.3582-3.0004-5.3582-6.2752 0-5.011 4.4648-7.0806 8.632-7.0806 2.6404 0 5.3646.87068 7.1308 2.11794.6083.46089.2378.99006.2378.99006l-1.6859 2.408c-.1895.2712-.5208.5055-.9965.212-.4756-.2934-2.1438-1.47423-4.6862-1.47423-2.5425 0-4.074 1.17423-4.074 2.62953 0 1.7453 1.9905 2.2942 4.322 2.889 4.063 1.0953 8.4951 2.4117 8.4951 7.3928 0 4.415-4.1296 7.1435-8.6936 7.1435-3.4588 0-6.4035-.986-8.8732-2.7984-.5145-.515-.1551-.993-.1551-.993l1.6776-2.3958c.3413-.448.7717-.2917.9599-.1616z"/></g></g></svg>