<svg fill="none" height="50" viewBox="0 0 125 50" width="125" xmlns="http://www.w3.org/2000/svg"><path d="m0 0h125v50h-125z" fill="#ec1d24"/><path d="m.961539 0h-.961539v.961538h.961539z" fill="#ec1d24"/><path d="m121.152 38.5178v7.6019h-14.053v-42.274h7.568v34.6721zm-60.048-13.9423c-.5855.2827-1.1978.4231-1.7948.425v-13.5961h.0384c.597-.0049 5.0523.1769 5.0523 6.724 0 3.4221-1.5164 5.5808-3.2959 6.4471zm-22.1789 8.3471 2.0953-18.0759 2.1739 18.0759zm66.8539-21.3606v-7.70957h-21.4279l-3.5272 25.74907-3.4841-25.75003h-7.7282l.8648 6.87503c-.8907-1.76157-4.0542-6.87503-11.0184-6.87503-.0451-.00192-7.736 0-7.736 0l-.0297 37.53073-5.6321-37.52977-10.121-.0048-5.8278 38.88457.0019-38.87977h-9.6853l-3.4917 21.84327-3.4015-21.84423h-9.69007v42.27503h7.63037v-20.377l3.4725 20.377h4.0561l3.4216-20.377v20.377h14.7108l.8907-6.502h5.9219l.8897 6.502 14.442.0077h.0096v-.0077h.0192v-13.7212l1.7708-.2596 3.6635 13.9904h7.4711l-.002-.0096h.0212l-4.8096-16.3923c2.436-1.8077 5.1887-6.3885 4.4564-10.7722v-.0019c.0076.0558 4.5388 27.1933 4.5388 27.1933l8.8838-.026 6.0726-38.31727v38.31727h14.4032v-7.6038h-6.8371v-9.6923h6.8371v-7.7212h-6.8371v-9.549h6.8371z" fill="#fefefe"/></svg>