<svg fill="none" height="38" viewBox="0 0 176 38" width="176" xmlns="http://www.w3.org/2000/svg" xmlns:xlink="http://www.w3.org/1999/xlink"><clipPath id="a"><path d="m0 0h176v37.5936h-176z"/></clipPath><g clip-path="url(#a)"><path d="m176 17.0066v-3.0953h-3.843v-4.81187l-.13.03984-3.61 1.10463-.071.0216v3.646h-5.698v-2.0311c0-.9458.211-1.6695.628-2.15222.414-.47688 1.006-.71932 1.761-.71932.543 0 1.105.12786 1.67.38001l.142.06333v-3.25969l-.067-.02452c-.527-.18966-1.245-.28518-2.135-.28518-1.121 0-2.139.24398-3.028.7275-.889.4842-1.588 1.17544-2.078 2.05429-.488.87784-.736 1.8917-.736 3.0137v2.233h-2.676v3.0953h2.676v13.0396h3.843v-13.0396h5.698v8.2864c0 3.4128 1.61 5.1422 4.784 5.1422.522 0 1.071-.0611 1.632-.1808.57-.1229.959-.2457 1.188-.3768l.05-.0299v-3.1239l-.156.1034c-.208.1389-.468.2525-.772.3369-.306.086-.562.1291-.759.1291-.744 0-1.294-.2004-1.636-.5959-.345-.3991-.52-1.097-.52-2.0732v-7.6175zm-28.451 10.2871c-1.395 0-2.494-.4624-3.269-1.3733-.78-.9154-1.175-2.2206-1.175-3.8789 0-1.7109.395-3.0499 1.175-3.9816.776-.9255 1.865-1.3952 3.238-1.3952 1.332 0 2.392.4486 3.152 1.3341.763.8901 1.151 2.2184 1.151 3.9492 0 1.7521-.364 3.098-1.083 3.9983-.713.8935-1.786 1.3474-3.189 1.3474zm.171-13.7711c-2.661 0-4.774.7796-6.281 2.3172-1.506 1.5378-2.269 3.6658-2.269 6.3255 0 2.5262.745 4.5582 2.215 6.0386 1.47 1.4808 3.471 2.231 5.946 2.231 2.579 0 4.65-.7905 6.156-2.3494 1.506-1.5571 2.269-3.665 2.269-6.2626 0-2.5657-.716-4.6129-2.129-6.0834-1.413-1.4711-3.401-2.2169-5.907-2.2169zm-14.745 0c-1.81 0-3.307.463-4.45 1.3757-1.151.9182-1.734 2.1224-1.734 3.5796 0 .7575.126 1.4303.373 2.001.25.5726.636 1.0767 1.149 1.4998.509.4197 1.294.8593 2.335 1.3065.875.3601 1.528.6647 1.942.9047.406.2353.693.4718.856.7022.157.2254.237.5339.237.9146 0 1.084-.811 1.6114-2.482 1.6114-.619 0-1.326-.1293-2.1-.3844-.769-.2512-1.494-.619-2.151-1.0906l-.16-.1145v3.6992l.059.0272c.543.251 1.229.4626 2.037.6291.806.1667 1.539.2515 2.175.2515 1.964 0 3.545-.4652 4.699-1.3833 1.162-.9245 1.75-2.1572 1.75-3.6648 0-1.0876-.317-2.0202-.941-2.7724-.62-.7461-1.697-1.431-3.198-2.0364-1.196-.4801-1.963-.8787-2.279-1.1847-.305-.2955-.459-.7135-.459-1.2428 0-.4692.191-.8452.583-1.1496.395-.3059.945-.4615 1.635-.4615.64 0 1.295.1011 1.946.2993s1.223.4636 1.7.7883l.157.1072v-3.5089l-.06-.0259c-.44-.1888-1.021-.3504-1.726-.4815-.702-.1302-1.339-.196-1.893-.196zm-16.201 13.7711c-1.394 0-2.494-.4624-3.268-1.3733-.78-.9154-1.174-2.2203-1.174-3.8789 0-1.7109.394-3.0499 1.174-3.9816.775-.9255 1.864-1.3952 3.238-1.3952 1.331 0 2.392.4486 3.152 1.3341.763.8901 1.151 2.2184 1.151 3.9492 0 1.7521-.365 3.098-1.083 3.9983-.714.8935-1.786 1.3474-3.19 1.3474zm.172-13.7711c-2.662 0-4.775.7796-6.281 2.3172-1.506 1.5378-2.27 3.6658-2.27 6.3255 0 2.5272.746 4.5582 2.216 6.0386 1.47 1.4808 3.47 2.231 5.945 2.231 2.579 0 4.651-.7905 6.157-2.3494 1.505-1.5571 2.269-3.665 2.269-6.2626 0-2.5657-.716-4.6129-2.129-6.0834-1.414-1.4711-3.402-2.2169-5.907-2.2169zm-14.383 3.183v-2.7943h-3.7951v16.1346h3.7951v-8.2535c0-1.4034.318-2.5563.946-3.4272.62-.8605 1.446-1.2965 2.455-1.2965.342 0 .726.0564 1.141.1679.411.1108.709.2312.885.3579l.16.1156v-3.8263l-.062-.0264c-.353-.1502-.853-.226-1.486-.226-.954 0-1.807.3065-2.538.9099-.642.5303-1.106 1.2575-1.46 2.1643zm-10.5918-3.183c-1.7412 0-3.2943.3734-4.6153 1.1094-1.3237.7377-2.3475 1.7909-3.044 3.1302-.6934 1.3359-1.0455 2.8965-1.0455 4.6368 0 1.5245.3414 2.9235 1.0161 4.1565.675 1.235 1.6305 2.2012 2.84 2.8713 1.2078.6693 2.6037 1.0086 4.1493 1.0086 1.8036 0 3.3436-.3606 4.5783-1.0718l.0499-.0286v-3.4771l-.1596.1165c-.5592.4074-1.1843.7326-1.8568.9669-.6708.2341-1.2823.3524-1.8186.3524-1.4892 0-2.6848-.466-3.5526-1.3847-.8696-.9199-1.3106-2.2116-1.3106-3.837 0-1.6357.4599-2.9606 1.3661-3.9382.9036-.9747 2.1013-1.4691 3.5597-1.4691 1.2475 0 2.4631.4224 3.6132 1.2566l.1592.1156v-3.6637l-.0515-.0289c-.4327-.2423-1.023-.4423-1.7558-.594-.7297-.1514-1.4434-.2277-2.1215-.2277zm-11.3187.3889h-3.7953v16.1344h3.7953zm-1.8589-6.87334c-.6246 0-1.1694.21265-1.617.63403-.4495.42257-.6775.95462-.6775 1.58251 0 .61803.2253 1.1404.6705 1.5517.4423.4101.9888.618 1.6242.618.6352 0 1.1838-.2079 1.6314-.6173.4505-.412.679-.9342.679-1.5524 0-.60593-.2224-1.13253-.6605-1.56549-.4377-.4321-.993-.65105-1.6501-.65105zm-9.4695 5.68294v17.3248h3.8733v-22.51383h-5.3608l-6.814 16.72253-6.6125-16.72253h-5.579v22.51363h3.6398v-17.3263h.125l6.9826 17.3265h2.7469l6.8737-17.3248z" fill="#706d6e"/><path d="m17.8543 17.864h-17.8543v-17.85423438h17.8543z" fill="#f1511b"/><path d="m37.5678 17.864h-17.8539v-17.85423438h17.8539z" fill="#80cc28"/><path d="m17.8537 37.5845h-17.8537v-17.854h17.8537z" fill="#00adef"/><path d="m37.5678 37.5845h-17.8539v-17.854h17.8539z" fill="#fbbc09"/></g></svg>